<svg id="folder-cloud" enable-background="new 0 0 300 300" height="512" viewBox="0 0 300 300" width="512" xmlns="http://www.w3.org/2000/svg"><g><path d="m120.354 61.312c.781.781 1.805 1.172 2.828 1.172s2.047-.391 2.828-1.172l2.828-2.828 2.828 2.828c.781.781 1.805 1.172 2.828 1.172s2.047-.391 2.828-1.172c1.562-1.562 1.562-4.094 0-5.656l-2.828-2.828 2.828-2.828c1.562-1.562 1.562-4.094 0-5.656s-4.094-1.562-5.656 0l-2.828 2.828-2.828-2.828c-1.562-1.562-4.094-1.562-5.656 0s-1.562 4.094 0 5.656l2.828 2.828-2.828 2.828c-1.563 1.563-1.563 4.094 0 5.656z"/><circle cx="172.838" cy="68.828" r="4"/><circle cx="236.838" cy="72.828" r="4"/><path d="m248.838 203.853v-99.025c0-11.027-8.973-20-20-20h-114.344l-7.785-16.145c-.105-.219-.23-.426-.371-.621-3.426-4.688-8.973-7.484-14.844-7.484h-44.566c-9.977 0-18.09 7.973-18.09 17.773v135.855c0 9.446 7.222 17.185 16.508 18.378 1.721 7.144 8.032 12.243 15.492 12.243h90.101c4.78 7.222 12.967 12 22.259 12h71.281c14.715 0 26.684-11.969 26.684-26.68-.001-13.226-9.683-24.203-22.325-26.294zm-188 32.975c-2.944 0-5.546-1.579-6.936-4h78.936c2.211 0 4-1.789 4-4s-1.789-4-4-4h-85.047c-6.039 0-10.953-4.766-10.953-10.621v-135.855c0-5.391 4.527-9.773 10.09-9.773h44.566c3.211 0 6.246 1.465 8.184 3.938l5.937 12.312h-20.777c-2.211 0-4 1.789-4 4s1.789 4 4 4h27.145.855 116c6.617 0 12 5.383 12 12v98.914c-.813.113-1.625.236-2.426.426-2.395-16.859-16.922-29.863-34.434-29.863-17.289 0-31.73 12.648-34.328 29.395-13.043 1.738-23.137 12.938-23.137 26.449 0 2.311.326 4.541.881 6.68h-86.556zm183.641 12h-71.281c-10.301 0-18.684-8.379-18.684-18.68s8.375-18.68 18.758-18.68h.008c2.129 0 3.883-1.668 3.996-3.793.738-14.227 12.469-25.371 26.703-25.371 14.766 0 26.781 12.016 26.777 26.816-.008.07-.023.422-.027.492-.027 1.387.668 2.688 1.832 3.441 1.164.75 2.637.852 3.891.246 2.555-1.219 5.258-1.836 8.027-1.836 10.301 0 18.684 8.383 18.684 18.684s-8.384 18.681-18.684 18.681z"/></g></svg>