<?xml version="1.0" encoding="utf-8"?>
<!-- Generator: Adobe Illustrator 16.0.0, SVG Export Plug-In . SVG Version: 6.00 Build 0)  -->
<!DOCTYPE svg PUBLIC "-//W3C//DTD SVG 1.1//EN" "http://www.w3.org/Graphics/SVG/1.1/DTD/svg11.dtd">
<svg version="1.1" id="Layer_1" xmlns="http://www.w3.org/2000/svg" xmlns:xlink="http://www.w3.org/1999/xlink" x="0px" y="0px"
	 width="907.09px" height="510.24px" viewBox="0 0 907.09 510.24" enable-background="new 0 0 907.09 510.24" xml:space="preserve">
<g>
	<g>
		<path d="M323.363,320.143c1.208,1.926,3.315,3.093,5.582,3.093h79.257v34.446h-24.297
			c-29.422,0-53.365,23.938-53.365,53.359c0,3.64,2.961,6.584,6.595,6.584h233.191c3.634,0,6.584-2.944,6.584-6.584
			c0-29.422-23.932-53.359-53.354-53.359h-10.981v-33.147c40.552-3.36,72.514-37.431,72.514-78.835
			c0-43.621-35.482-79.109-79.108-79.109c-23.408,0-44.459,10.223-58.959,26.432l-26.768-55.154
			c-1.105-2.272-3.406-3.708-5.923-3.708c-2.529,0-4.83,1.436-5.935,3.708L323.021,313.77
			C322.031,315.809,322.167,318.218,323.363,320.143z M505.98,232.525c-3.634,0-6.584,2.944-6.584,6.589v40.813L481.068,261.6
			c-2.574-2.568-6.743-2.568-9.317,0c-2.563,2.574-2.563,6.744,0,9.318l27.646,27.64v12.752c-2.574-0.263-5.104-0.673-7.586-1.214
			c-0.639-0.142-1.265-0.29-1.892-0.443c-0.364-0.092-0.718-0.188-1.07-0.279c-0.501-0.137-1.003-0.273-1.504-0.422
			c-0.398-0.119-0.786-0.238-1.185-0.364c-0.535-0.171-1.06-0.342-1.583-0.524c-0.364-0.125-0.741-0.25-1.094-0.387
			c-0.581-0.205-1.15-0.422-1.72-0.649c-0.342-0.137-0.707-0.284-1.06-0.433c-0.433-0.183-0.877-0.376-1.321-0.57
			c-0.422-0.182-0.832-0.375-1.253-0.568c-0.468-0.223-0.935-0.445-1.401-0.673c-0.239-0.125-0.479-0.239-0.729-0.364
			c-0.649-0.342-1.299-0.695-1.948-1.048c-0.171-0.103-0.353-0.194-0.524-0.296c-0.717-0.404-1.412-0.82-2.106-1.248
			c-0.058-0.039-0.114-0.074-0.183-0.107c-17.303-10.811-29.081-29.377-30.938-50.245c0-0.011,0-0.022,0-0.034
			c-0.08-0.905-0.137-1.822-0.182-2.739c0-0.097,0-0.199-0.012-0.302c-0.034-0.9-0.057-1.8-0.057-2.7
			c0-0.729,0.011-1.458,0.034-2.181c0.011-0.194,0.022-0.394,0.022-0.598c0.022-0.604,0.068-1.219,0.103-1.829
			c0.011-0.119,0.011-0.25,0.022-0.37c0.057-0.695,0.125-1.384,0.194-2.073c0.023-0.233,0.045-0.467,0.08-0.694
			c0.057-0.496,0.125-0.991,0.194-1.481c0.034-0.239,0.057-0.479,0.103-0.723c0.091-0.609,0.194-1.225,0.308-1.84
			c0.057-0.33,0.125-0.661,0.182-0.991c0.068-0.324,0.137-0.649,0.205-0.968c0.296-1.39,0.638-2.768,1.014-4.124
			c0.023-0.091,0.057-0.188,0.08-0.285c7.905-27.555,33.329-47.773,63.39-47.773c36.359,0,65.94,29.576,65.94,65.93
			c0,34.132-26.073,62.295-59.346,65.611v-15.475v-0.006v-30.994l17.69-17.701c2.574-2.568,2.574-6.737,0-9.306
			c-2.574-2.574-6.744-2.574-9.318,0l-8.372,8.372v-7.085C512.575,235.476,509.625,232.525,505.98,232.525z M421.37,323.235h68.869
			c2.996,0.604,6.049,1.036,9.158,1.299v33.147H421.37V323.235z M414.786,389.963c3.634,0,6.584-2.951,6.584-6.596V370.86h78.027
			v12.507c0,3.645,2.95,6.596,6.584,6.596c3.645,0,6.595-2.951,6.595-6.596V370.86h10.981c19.91,0,36.484,14.558,39.639,33.591
			h-218.93c3.155-19.033,19.729-33.591,39.64-33.591h24.297v12.507C408.202,387.012,411.152,389.963,414.786,389.963z
			 M339.47,310.057l74.86-154.231l23.83,49.128c-3.907,6.493-6.823,13.475-8.725,20.742c-0.034,0.16-0.08,0.313-0.114,0.467
			c-0.137,0.518-0.262,1.037-0.387,1.561c-0.045,0.228-0.103,0.467-0.16,0.706c-0.159,0.752-0.319,1.503-0.467,2.255
			c-0.068,0.41-0.148,0.82-0.228,1.225c-0.058,0.359-0.126,0.723-0.183,1.088c-0.068,0.45-0.137,0.9-0.205,1.355
			c-0.045,0.319-0.091,0.649-0.137,0.968c-0.091,0.683-0.171,1.361-0.239,2.05c-0.022,0.159-0.034,0.319-0.045,0.484
			c-0.08,0.712-0.137,1.43-0.182,2.153c-0.023,0.256-0.046,0.507-0.046,0.769c-0.045,0.581-0.08,1.167-0.103,1.754
			c0,0.245-0.011,0.49-0.022,0.734c-0.023,0.809-0.046,1.618-0.046,2.432c0,1.059,0.034,2.119,0.068,3.167
			c0,0.137,0.012,0.268,0.023,0.398c0.045,1.083,0.114,2.147,0.205,3.218c0,0.023,0.011,0.051,0.011,0.074
			c0.786,9.204,3.167,17.964,6.846,25.994c0.012,0.046,0.046,0.085,0.058,0.125c0.398,0.866,0.82,1.72,1.241,2.574
			c0.159,0.308,0.319,0.615,0.479,0.923c0.285,0.541,0.569,1.082,0.877,1.629c2.313,4.226,5.023,8.264,8.099,12.028
			c4.454,5.417,9.58,10.194,15.229,14.233H421.37v-84.127c0-3.634-2.95-6.584-6.584-6.584c-3.633,0-6.583,2.95-6.583,6.584v34.839
			l-4.203-4.198c-2.575-2.574-6.744-2.574-9.318,0c-2.563,2.575-2.563,6.744,0,9.318l13.521,13.51v30.652H339.47z"/>
	</g>
</g>
</svg>
