<?xml version="1.0" encoding="iso-8859-1"?>
<!-- Generator: Adobe Illustrator 19.0.0, SVG Export Plug-In . SVG Version: 6.00 Build 0)  -->
<svg version="1.1" id="Capa_1" xmlns="http://www.w3.org/2000/svg" xmlns:xlink="http://www.w3.org/1999/xlink" x="0px" y="0px"
	 viewBox="0 0 512 512" style="enable-background:new 0 0 512 512;" xml:space="preserve">
<g>
	<g>
		<path d="M367,3.5c-19.721,0-37.603,12.409-44.496,30.877l14.053,5.245C341.272,26.989,353.507,18.5,367,18.5
			c17.921,0,32.5,14.58,32.5,32.5c0,10.582-5.176,20.529-13.847,26.609l8.613,12.281C406.936,81.005,414.5,66.467,414.5,51
			C414.5,24.809,393.191,3.5,367,3.5z"/>
	</g>
</g>
<g>
	<g>
		<path d="M345,54.5h-41c-6.893,0-12.5-5.607-12.5-12.5c0-15.164-12.337-27.5-27.5-27.5h-81c-15.163,0-27.5,12.336-27.5,27.5
			s12.337,27.5,27.5,27.5h26c6.893,0,12.5,5.607,12.5,12.5c0,15.164,12.337,27.5,27.5,27.5h96c15.163,0,27.5-12.336,27.5-27.5
			S360.163,54.5,345,54.5z M345,94.5h-96c-6.893,0-12.5-5.607-12.5-12.5c0-15.164-12.337-27.5-27.5-27.5h-26
			c-6.893,0-12.5-5.607-12.5-12.5s5.607-12.5,12.5-12.5h81c6.893,0,12.5,5.607,12.5,12.5c0,15.164,12.337,27.5,27.5,27.5h41
			c6.893,0,12.5,5.607,12.5,12.5S351.893,94.5,345,94.5z"/>
	</g>
</g>
<g>
	<g>
		<path d="M159,86.5H87c-12.406,0-22.5,10.093-22.5,22.5c0,4.136-3.364,7.5-7.5,7.5H26c-12.406,0-22.5,10.093-22.5,22.5
			s10.094,22.5,22.5,22.5h80c12.406,0,22.5-10.093,22.5-22.5c0-4.136,3.364-7.5,7.5-7.5h23c12.406,0,22.5-10.093,22.5-22.5
			S171.406,86.5,159,86.5z M159,116.5h-23c-12.406,0-22.5,10.093-22.5,22.5c0,4.136-3.364,7.5-7.5,7.5H26
			c-4.136,0-7.5-3.364-7.5-7.5s3.364-7.5,7.5-7.5h31c12.406,0,22.5-10.093,22.5-22.5c0-4.136,3.364-7.5,7.5-7.5h72
			c4.136,0,7.5,3.364,7.5,7.5S163.136,116.5,159,116.5z"/>
	</g>
</g>
<g>
	<g>
		<path d="M508.5,493.5v-30h-15v-280h-45v15H405c-18.369,0-33.684,13.279-36.878,30.739c-14.628,3.165-25.622,16.2-25.622,31.761
			c0,17.92,14.579,32.5,32.5,32.5c17.921,0,32.5-14.58,32.5-32.5c0-15.006-10.225-27.663-24.072-31.385
			c2.76-9.305,11.383-16.115,21.572-16.115h43.5v250h-15v30h-33v-35H418v-15h-32.5v-15H403v-15h-17.5v-15H403v-15h-17.5V371h-15
			v12.5h-85V371h-15v12.5H253v15h17.5v15H253v15h17.5v15H238v15h17.5v35h-92V391.342c51.213-2.862,92-45.426,92-97.342
			c0-53.762-43.738-97.5-97.5-97.5c-22.213,0-43.133,7.276-60.499,21.042l9.318,11.755C121.507,217.654,139.205,211.5,158,211.5
			c45.49,0,82.5,37.009,82.5,82.5c0,43.641-34.067,79.454-77,82.296v-9.189l32.804-32.804l-10.607-10.606L163.5,345.893V302h-15
			v22.893l-17.196-17.196l-10.607,10.606l27.804,27.804v29.833c-7.12-0.813-14.071-2.523-20.748-5.157l-5.504,13.954
			c8.439,3.328,17.236,5.433,26.252,6.302V493.5h-85v-75.544c25.407-3.651,45-25.554,45-51.956v-90c0-28.949-23.552-52.5-52.5-52.5
			S3.5,247.051,3.5,276v90c0,26.402,19.593,48.304,45,51.956V493.5H0v15h512v-15H508.5z M392.5,261c0,9.649-7.851,17.5-17.5,17.5
			s-17.5-7.851-17.5-17.5s7.851-17.5,17.5-17.5S392.5,251.351,392.5,261z M76.697,345.697L63.5,358.893V313h-15v22.893l-9.196-9.196
			l-10.607,10.606L48.5,357.107v45.638c-17.096-3.484-30-18.635-30-36.745v-90c0-20.678,16.822-37.5,37.5-37.5
			s37.5,16.822,37.5,37.5v90c0,18.11-12.904,33.261-30,36.745v-22.638l23.804-23.804L76.697,345.697z M285.5,398.5h85v15h-85V398.5z
			 M285.5,428.5h85v15h-85V428.5z M385.5,493.5h-115v-35h115V493.5z M463.5,198.5h15v265h-15V198.5z M493.5,493.5h-45v-15h45V493.5z
			"/>
	</g>
</g>
<g>
	<g>
		<rect x="436" y="131.5" width="15" height="15"/>
	</g>
</g>
<g>
	<g>
		<rect x="376" y="131.5" width="15" height="15"/>
	</g>
</g>
<g>
	<g>
		<rect x="406" y="131.5" width="15" height="15"/>
	</g>
</g>
<g>
	<g>
		<rect x="33.5" y="279" width="15" height="20"/>
	</g>
</g>
<g>
	<g>
		<path d="M56,253.5v15c4.136,0,7.5,3.364,7.5,7.5h15C78.5,263.593,68.406,253.5,56,253.5z"/>
	</g>
</g>
<g>
	<g>
		<path d="M134.376,230.726c-6.54,2.443-12.675,5.917-18.238,10.326l9.318,11.755c4.332-3.434,9.099-6.136,14.169-8.029
			c5.821-2.175,12.004-3.278,18.375-3.278v-15C149.83,226.5,141.882,227.922,134.376,230.726z"/>
	</g>
</g>
<g>
	<g>
		<g>
			<path d="M224.223,280.901c-1.523-7.712-4.367-15.042-8.453-21.788c-7.289-12.028-17.935-21.359-30.786-26.983l-6.014,13.741
				c9.861,4.315,18.374,11.779,23.971,21.015c3.174,5.24,5.383,10.934,6.567,16.922L224.223,280.901z"/>
			<path d="M210.423,296.873c-0.237,4.382-1.022,8.712-2.334,12.871l14.307,4.511c1.688-5.358,2.7-10.933,3.006-16.57
				L210.423,296.873z"/>
		</g>
	</g>
</g>
<g>
	<g>
		<rect x="168" y="275.5" width="22" height="15"/>
	</g>
</g>
<g>
	<g>
		<rect x="126" y="265.5" width="20" height="15"/>
	</g>
</g>
<g>
</g>
<g>
</g>
<g>
</g>
<g>
</g>
<g>
</g>
<g>
</g>
<g>
</g>
<g>
</g>
<g>
</g>
<g>
</g>
<g>
</g>
<g>
</g>
<g>
</g>
<g>
</g>
<g>
</g>
</svg>
