<?xml version="1.0" encoding="utf-8"?>
<!-- Generator: Adobe Illustrator 16.0.0, SVG Export Plug-In . SVG Version: 6.00 Build 0)  -->
<!DOCTYPE svg PUBLIC "-//W3C//DTD SVG 1.1//EN" "http://www.w3.org/Graphics/SVG/1.1/DTD/svg11.dtd">
<svg version="1.1" id="Layer_1" xmlns="http://www.w3.org/2000/svg" xmlns:xlink="http://www.w3.org/1999/xlink" x="0px" y="0px"
	 width="224.359px" height="312.393px" viewBox="0 0 224.359 312.393" enable-background="new 0 0 224.359 312.393"
	 xml:space="preserve">
<g>
	<path fill-rule="evenodd" clip-rule="evenodd" d="M111.636,49.201c30.458,0,60.921,0.094,91.379-0.111
		c4.06-0.023,4.716,1.23,4.71,4.914c-0.117,52.458-0.768,104.928,0.205,157.374c0.491,26.64-11.176,45.254-32.04,59.476
		c-19.095,13.015-40.86,19.294-63.212,23.862c-1.886,0.387-3.643-0.316-5.412-0.686c-20.096-4.205-39.566-10.162-57.114-21.203
		c-15.592-9.812-27.84-22.404-33.105-40.667c-1.184-4.101-1.716-8.271-1.716-12.518c0.059-55.275,0.164-110.556,0.07-165.837
		c-0.012-4.006,1.171-4.703,4.85-4.686C50.709,49.266,81.172,49.201,111.636,49.201z M111.496,51.568
		c-29.755,0-59.51,0.07-89.271-0.082c-3.719-0.023-4.645,0.902-4.633,4.639c0.141,52.188,0.094,104.365,0.094,156.554
		c0.006,3.655-0.229,7.356,0.181,10.977c2.138,18.86,12.787,32.461,27.576,43.203c18.029,13.097,38.74,19.81,60.243,24.448
		c2.46,0.527,4.885,1.43,7.497,0.914c20.149-4.03,39.736-9.794,57.354-20.641c22.609-13.918,35.694-32.638,35.05-60.998
		c-1.153-51.451-0.363-102.948-0.24-154.428c0.012-3.649-0.755-4.704-4.574-4.68C171.018,51.65,141.263,51.568,111.496,51.568z"/>
	<path fill-rule="evenodd" clip-rule="evenodd" d="M111.707,41.687c-13.812-0.006-27.623-0.006-41.435,0.006
		c-2.29,0-4.036,0.668-3.081-3.421c1.124-4.803,1.147-10.309-0.035-15.088c-1.031-4.124,0.703-3.462,3.034-3.456
		c8.037,0,16.096-0.422,24.091,0.141c5.5,0.387,8.909-2.618,12.669-5.471c5.195-3.936,5.412-4.206,10.379,0.158
		c4.64,4.071,9.601,5.658,15.733,5.277c7.157-0.445,14.374-0.1,21.555-0.111c2.179-0.006,3.233-0.34,2.507,3.122
		c-1.078,5.107-1.148,10.813,0.012,15.885c0.902,3.918-0.984,2.929-2.729,2.935C140.173,41.704,125.939,41.692,111.707,41.687z
		 M111.923,22.152c-3.93,0-7.867,0.088-11.796-0.041c-2.085-0.07-3.058,0.434-2.958,2.759c0.164,3.925,0.176,7.872,0,11.797
		c-0.105,2.366,0.943,2.776,2.987,2.753c7.866-0.088,15.732-0.105,23.599,0.012c2.278,0.035,3.286-0.469,3.157-2.987
		c-0.199-3.784-0.199-7.591,0-11.375c0.135-2.554-0.938-3.046-3.192-2.964C119.79,22.258,115.854,22.152,111.923,22.152z
		 M141.907,39.385c3.232,0,6.466-0.105,9.688,0.035c2.138,0.1,2.999-0.533,2.905-2.812c-0.17-3.925-0.129-7.86-0.012-11.785
		c0.059-1.938-0.475-2.753-2.565-2.718c-6.736,0.105-13.472,0.094-20.208,0c-1.968-0.023-2.753,0.504-2.671,2.589
		c0.146,3.784,0.252,7.591-0.023,11.363c-0.223,2.999,1.049,3.526,3.626,3.374C135.722,39.244,138.82,39.385,141.907,39.385z
		 M82.314,39.385c0-0.088,0-0.176,0-0.264c4.065,0,9.478,1.587,11.82-0.416c2.718-2.319,0.615-7.896,0.908-12.048
		c0.053-0.697-0.053-1.412,0.018-2.103c0.188-1.833-0.621-2.483-2.425-2.437c-3.081,0.094-6.185-0.164-9.254,0.076
		c-4.487,0.357-10.648-2.208-12.992,1.201c-2.173,3.151-0.445,8.95-0.562,13.578c-0.047,1.804,0.533,2.507,2.384,2.442
		C75.579,39.309,78.947,39.385,82.314,39.385z M104.49,19.388c5.307,0,10.204,0,15.534,0
		C111.894,12.886,111.894,12.886,104.49,19.388z"/>
	<path fill-rule="evenodd" clip-rule="evenodd" d="M182.434,101.589c11.205,4.071,17.226,11.826,17.038,21.93
		c-0.163,9.149-5.81,15.534-16.189,18.316c-11.995-0.38-19.234-5.992-20.863-16.166c-1.383-8.569,5.014-16.699,13.753-17.496
		c8.493-0.773,16.143,6.009,16.412,14.549c0.211,6.437-4.674,11.843-10.982,12.16c-6.507,0.328-11.866-4.299-12.394-10.689
		c-0.381-4.604,2.642-8.476,7.022-9.003c4.756-0.574,8.88,2.46,9.472,6.994c0.357,2.753-0.838,4.756-3.38,5.635
		c-2.437,0.832-4.464-0.152-5.705-2.39c-0.539-0.972-1.037-2.343,0.059-3.104c1.335-0.914,1.933,0.246,2.39,1.394
		c0.48,1.195,1.348,1.886,2.63,1.172c1.165-0.65,1.259-1.792,0.932-2.964c-0.727-2.636-2.472-4.077-5.214-4.054
		c-2.928,0.035-4.803,1.57-5.213,4.499c-0.462,3.351,0.75,6.139,3.526,8.072c3.046,2.126,6.338,2.296,9.571,0.462
		c3.256-1.851,4.633-4.832,4.439-8.511c-0.346-6.455-5.805-11.421-12.417-11.375c-6.607,0.041-11.832,5.066-12.102,11.632
		c-0.34,8.651,6.303,15.967,14.831,16.324c8.809,0.375,16.213-6.39,16.547-15.106c0.322-8.54-5.195-16.307-13.432-18.913
		c-8.041-2.548-16.892,0.545-21.602,7.55c-2.267,3.362-3.156,7.087-3.396,11.141c-0.715,12.025-8.049,19.798-19.95,21.356
		c-0.938,0.129-1.575,0.421-2.062,1.166c7.017,1.91,11.51,5.359,13.705,11.223c1.02,2.735,2.766,4.423,5.144,5.793
		c4.744-16.506,13.155-22.475,28.278-20.132c10.474,4.071,16.242,11.697,16.189,21.396c-0.059,10.017-6.548,16.682-19.07,19.049
		c3.994,1.218,7.409,2.377,10.361,4.627c11.369,8.656,11.65,25.279,0.498,32.953c-6.549,4.504-14.872,4.334-21.356-0.434
		c-6.243-4.604-9.113-12.582-6.981-19.417c2.214-7.104,9.219-11.521,16.764-10.561c6.899,0.878,12.464,6.981,12.909,14.146
		c0.398,6.554-4.498,12.165-11.023,12.634c-6.168,0.439-11.86-4.521-12.405-10.813c-0.398-4.674,2.869-8.786,7.362-9.231
		c4.516-0.457,8.827,2.947,9.226,7.404c0.27,2.939-1.078,4.996-4.013,5.518c-2.653,0.469-4.709-0.598-5.512-3.386
		c-0.281-0.996-0.352-2.073,0.809-2.519c1.007-0.381,1.587,0.422,1.856,1.242c0.463,1.429,1.33,2.395,2.782,1.628
		c1.54-0.82,1.241-2.413,0.656-3.749c-1.008-2.313-2.952-3.52-5.395-3.244c-2.595,0.28-4.376,1.803-4.745,4.604
		c-0.614,4.674,2.83,8.984,7.574,9.488c5.201,0.551,9.488-2.952,9.916-8.106c0.539-6.454-4.633-12.288-11.381-12.851
		c-6.601-0.551-12.616,4.533-13.003,11.141c-0.387,6.701,2.378,11.832,8.341,14.93c5.945,3.081,11.861,2.514,17.045-1.657
		c5.506-4.417,6.981-10.379,5.236-17.127c-2.255-8.722-10.613-14.702-19.651-14.151c-9.026,0.551-17.227,7.492-17.671,16.424
		c-0.715,14.163-7.234,22.703-21.368,25.011c0.199,1.745,1.71,1.927,2.647,2.647c5.318,4.106,8.552,9.454,8.839,16.154
		c0.305,7.182,0.193,14.386,0.018,21.566c-0.117,4.616-2.226,6.836-6.115,7.193c-4.979,0.457-7.579-1.277-8.669-5.91
		c-0.808-3.426-1.487-6.889-2.237-10.326c-0.146-0.65,0.035-1.523-0.79-1.805c-1.031-0.352-1.494,0.516-1.992,1.154
		c-2.231,2.876-3.309,6.133-3.531,9.775c-0.34,5.589-2.021,7.088-7.686,7.123c-3.947,0.029-7.901,0.047-11.849-0.006
		c-4.727-0.07-6.73-1.845-6.988-6.531c-0.211-3.777-1.13-7.228-3.456-10.238c-0.504-0.645-0.955-1.559-1.933-1.336
		c-1.072,0.246-0.82,1.354-0.99,2.109c-0.779,3.432-1.435,6.899-2.25,10.332c-1.036,4.381-3.596,6.057-8.44,5.658
		c-4.064-0.328-6.15-2.677-6.208-6.619c-0.105-7.614-0.328-15.24,0.07-22.832c0.357-6.688,3.807-11.96,9.307-15.85
		c2.653-1.874,2.478-5.834-0.498-7.315c-8.581-4.282-12.593-10.982-11.176-20.589c0.281-1.921-0.767-2.705-2.109-3.074
		c-2.12-0.574-1.698,1.575-1.862,2.46c-0.563,3.034-0.492,6.196-1.16,9.202c-2.647,11.866-15.1,19.164-27.078,16.037
		c-11.533-2.999-18.872-15.505-15.475-26.65c2.384-7.832,8.089-11.902,15.967-13.268c-0.592-1.804-2.354-1.821-3.708-2.437
		c-14.262-6.483-17.595-24.894-6.255-34.535c3.362-2.864,7.392-3.942,11.867-4.417c-14.35-6.542-19.399-13.114-18.614-24.05
		c0.574-8.06,5.893-13.894,15.405-16.898c1.406,0.047,2.812,0.064,4.217,0.129c9.29,0.463,16.693,7.69,17.431,16.998
		c0.691,8.721-5.875,16.16-14.485,16.412c-8.839,0.258-15.867-6.525-15.721-15.176c0.1-6.349,4.915-11.229,11.229-11.398
		c6.519-0.17,11.82,4.586,12.171,10.941c0.258,4.633-3.239,8.575-7.819,8.815c-4.469,0.234-8.417-3.104-8.763-7.427
		c-0.205-2.565,0.844-4.498,3.286-5.266c2.36-0.738,4.533-0.146,5.781,2.22c0.591,1.113,1.095,2.589-0.322,3.351
		c-1.172,0.639-1.617-0.574-2.009-1.511c-0.498-1.195-1.4-1.886-2.665-1.271c-1.207,0.586-1.254,1.81-0.973,2.946
		c0.721,2.864,2.706,4.387,5.553,4.17c2.788-0.211,4.627-1.857,4.926-4.868c0.463-4.656-3.04-8.879-7.784-9.336
		c-4.926-0.474-9.267,3.005-9.782,7.855c-0.667,6.238,4.159,12.253,10.567,13.155c6.214,0.878,12.464-3.397,13.694-9.36
		c1.745-8.411-4.347-17.173-12.792-18.392c-9.313-1.347-17.812,5.307-18.357,14.374c-0.609,10.314,7.322,19.51,17.467,20.243
		c10.895,0.796,20.207-6.988,20.723-17.707c0.492-10.239,4.733-17.754,14.315-21.994c2.858-1.266,3.04-3.362,0.715-5.348
		c-0.211-0.182-0.445-0.346-0.656-0.527c-8.282-6.812-9.7-18.017-3.245-24.999c6.578-7.105,18.509-6.396,23.781,2.027
		c0.574,0.908,1.171,1.751,2.203,0.521c0.656-0.773,2.138-1.248,1.177-2.706c-0.462-0.703-0.972-1.382-1.517-2.026
		c-5.072-5.975-13.115-8.177-20.747-5.711c-7.228,2.343-12.669,9.266-12.927,17.156c-0.311,9.611-4.305,16.699-13.044,21.016
		c-4.522,2.237-9.255,2.073-14.058,1.652C30.073,99.27,24.245,91.544,24.896,80.831c0.445-7.427,4.305-12.845,11.023-15.774
		c6.695-2.911,13.349-2.22,19.077,2.519c5.635,4.663,8.153,10.731,6.502,18.076c-1.676,7.456-8.938,12.376-16.494,11.393
		c-7.72-1.008-13.39-7.392-13.32-15.006c0.053-6.303,4.862-11.387,11.035-11.674c6.443-0.298,11.837,4.37,12.417,10.748
		c0.41,4.616-2.917,8.687-7.474,9.126c-4.581,0.445-8.845-2.999-9.149-7.445c-0.199-2.964,1.189-4.961,4.089-5.512
		c2.519-0.492,4.387,0.715,5.307,3.128c0.351,0.914,0.609,2.056-0.457,2.659c-1.242,0.703-1.722-0.305-2.144-1.259
		c-0.551-1.271-1.313-2.367-2.829-1.365c-1.283,0.843-1.084,2.249-0.615,3.456c0.984,2.525,2.894,3.819,5.623,3.456
		c2.683-0.363,4.281-1.962,4.592-4.721c0.539-4.732-3.269-9.155-8.153-9.489c-4.738-0.328-9.137,3.555-9.319,8.429
		c-0.193,5.143,2.185,8.967,6.636,11.404c4.264,2.325,9.84,1.593,13.483-1.535c3.978-3.421,5.389-9.009,3.597-14.274
		c-2.647-7.778-10.66-12.335-18.427-10.479c-8.001,1.909-13.202,9.583-12.107,17.865c1.3,9.77,9.823,16.869,19.827,16.529
		c9.77-0.34,17.923-7.873,18.157-17.689c0.398-16.055,12.962-24.677,24.759-23.248c6.221,0.75,11.252,3.579,14.989,8.522
		c1.323,1.746,2.647,1.828,4.727,2.121c5.359,0.773,8.78-1.699,12.897-4.475c10.713-7.24,25.509-0.463,27.893,12.242
		c1.33,7.087-1.411,13.156-7.743,16.775c-1.458,0.843-2.647,1.312-1.634,3.385c1.271,2.613,2.659,0.633,3.643,0.076
		c6.543-3.696,9.794-9.354,10.046-16.916c0.521-15.709,15.979-26.118,30.124-20.413c8.867,3.573,14.443,12.236,13.939,21.637
		c-0.479,8.991-5.903,14.672-16.938,17.748c-0.967-0.129-1.927-0.305-2.894-0.393c-9.073-0.802-15.645-6.906-17.145-15.938
		c-1.4-8.411,4.861-16.676,13.255-17.49c8.903-0.873,16.57,5.682,16.887,14.432c0.24,6.601-4.82,12.066-11.357,12.271
		c-6.313,0.205-11.761-4.844-12.036-11.152c-0.193-4.504,3.051-8.323,7.444-8.733c4.375-0.422,8.481,2.782,9.056,7.087
		c0.369,2.753-0.773,4.756-3.362,5.623c-2.431,0.82-4.464-0.1-5.717-2.343c-0.539-0.972-0.973-2.354,0.059-3.14
		c1.405-1.066,1.897,0.311,2.343,1.347c0.516,1.213,1.365,1.91,2.636,1.277c1.166-0.586,1.312-1.746,0.996-2.935
		c-0.762-2.841-2.729-4.364-5.576-4.153c-2.812,0.205-4.616,1.875-4.909,4.874c-0.491,5.061,3.427,9.307,8.641,9.348
		c5.26,0.041,9.271-4.252,8.967-9.6c-0.363-6.343-5.963-11.556-12.383-11.533c-6.478,0.023-11.854,5.184-12.159,11.673
		c-0.334,7.187,4.136,13.56,11.053,15.739c6.555,2.062,13.993-0.645,17.782-6.479c6.086-9.36,0.703-23.166-10.449-26.779
		c-12.446-4.03-24.642,4.387-25.32,17.701c-0.463,9.079-4.241,15.92-12.365,20.172c-4.346,2.273-4.609,4.206-0.867,7.632
		c3.948,3.614,6.109,8.036,6.215,13.401c0.234,11.615-11.105,18.808-21.895,13.993c-0.908-0.404-2.214-2.729-3.263-0.146
		c-0.655,1.605-0.264,3.063,1.559,3.795c0.392,0.158,0.778,0.34,1.165,0.51c11.908,5.131,25.761-3.397,26.511-16.318
		C156.286,108.349,166.344,99.814,182.434,101.589z M98.633,91.644c-2.132,3.397-5.354,2.97-8.411,2.062
		c-2.343-0.691-3.456,0.797-3.889,2.161c-0.721,2.302,1.71,1.588,2.765,1.927c5.307,1.716,9.77-0.117,13.747-3.631
		c0.966,0.41,0.345,1.054,0.322,1.675c-0.152,5.342-1.207,10.824,1.968,16.669c0-5.857-0.164-10.771,0.082-15.662
		c0.105-2.103-1.16-2.179-2.413-2.642c0.059-2.759,2.524-5.195,1.183-8.452c-1.815,1.113-1.394,3.913-3.684,4.217
		c-1.201-1.916,0.907-2.858,1.364-4.264c0.516-1.587-0.082-2.319-1.066-3.228c-0.96-0.884-1.675-0.685-2.466,0.205
		c-2.642,2.97-5.313,5.916-8.001,8.903C93.309,93.893,95.915,91.011,98.633,91.644z M121.447,95.005
		c0.656-0.96,1.2-0.234,1.628,0.188c3.345,3.304,7.41,3.731,11.686,2.729c1.16-0.281,3.726,0.34,3.163-1.992
		c-0.375-1.575-1.71-2.893-4.206-2.114c-2.881,0.896-6.05,1.066-8.035-2.173c2.729-0.797,5.494,2.519,8.434-0.129
		c-2.489-2.753-4.92-5.424-7.333-8.118c-0.973-1.09-1.78-2.027-3.403-0.668c-1.458,1.218-0.891,2.115-0.451,3.562
		c0.621,2.021,3.403,2.835,2.789,5.389c-3.176-0.516-3.1-4.235-5.22-5.74c-1.78,3.444,1.892,5.963,1.002,9.125
		c-0.961-0.199-2.319-1.593-2.284,0.925c0.07,5.208,0.023,10.415,0.023,16.518C122.612,106.375,120.961,100.558,121.447,95.005z
		 M138.41,110.246c-3.169,6.49-3.169,6.49-1.938,9.911c2.6-2.39,3.127-5.564,3.643-8.774c0.322-1.974-1.225-0.644-1.739-1.101
		c-1.383-1.733,1.704-2.366,0.854-3.989c-8.814-3.461-15.926-0.603-18.298,7.246c-1.065,3.526,0.064,4.159,3.321,3.502
		c4.375-0.89,8.253-2.636,11.645-5.553C136.577,110.908,136.951,109.374,138.41,110.246z M85.94,110.293
		c-0.457,0.563-2.085-1.289-1.775,0.832c0.492,3.385,0.843,6.847,4.112,9.295c0.398-2.688,2.243-5.09,0.158-7.638
		c1.482-1.166,2.208,0.475,3.075,0.996c2.935,1.774,6.08,2.753,9.43,3.356c2.601,0.469,3.215-0.293,2.694-2.812
		c-1.511-7.357-7.89-10.871-16.295-8.95c-2.12,0.48-3.104,1.16-1.44,3.239C86.263,109.063,86.942,109.713,85.94,110.293z
		 M90.163,196.594c-0.363,2.965-2.993,4.452-4.457,6.701c-0.867,1.336-0.516,1.887,0.604,2.636c1.159,0.785,1.698,0.316,2.22-0.72
		c1.189-2.373,2.419-4.716,3.649-7.07c0.375-0.721,1.066-1.616,0.105-2.132c-0.474-0.258-1.429,0.387-2.162,0.62
		c0.404-2.389-1.241-3.666-2.495-5.377c-4.387-5.997-10.156-7.315-17.015-5.927c-1.089,0.223-2.255,0.047-3.362,0.211
		c-1.881,0.269-4.897-0.809-5.412,0.714c-0.738,2.209,1.487,4.288,3.081,6.051c0.55,0.615,1.283,1.096,1.992,1.541
		c4.539,2.834,9.172,5.518,13.601,8.504c2.202,1.477,3.239,0.902,4.738-1.001C86.631,199.594,87.282,196.857,90.163,196.594z
		 M134.169,195.728c2.461,1.3,3.644,3.784,5.166,5.869c1.424,1.956,2.543,1.956,4.429,0.72c4.469-2.934,9.062-5.682,13.618-8.475
		c2.12-1.301,3.496-3.198,4.65-5.348c1.055-1.975,1.061-2.993-1.681-2.935c-3.087,0.069-6.238,0.022-9.272-0.486
		c-5.33-0.902-9.652,0.322-12.886,4.791c-1.395,1.927-4.44,2.735-3.978,5.91c-1.845,0.316-3.543,0.563-1.739,3.093
		c1.124,1.569,1.704,3.514,2.759,5.131c0.598,0.926,0.604,3.122,2.8,1.862c2.442-1.405,0.281-2.354-0.211-3.579
		C136.881,199.934,133.309,199.055,134.169,195.728z M119.767,128.919c-0.398-0.48,0-1.546-0.99-1.552
		c-4.621-0.029-9.237-0.012-14.491-0.012c5.359,5.641,10.433,3.708,15.522,1.517c0.275,0.281,0.649,0.563,0.229,0.984
		c-3.819,3.754-8.874,3.901-14.327,1.136c-4.75-2.407-2.659-5.523-1.658-8.774c0.352-1.143,1.465-3.093-0.978-3.169
		c-2.507-0.076-5.799-2.138-7.211,1.915c-1.188,3.421-1.177,6.865,2.091,9.044c2.296,1.541,3.584,3.62,5.09,5.529
		c-1.014,1.558-2.525-0.346-2.408,0.223c0.626,2.952-2.384,6.455,1.757,8.961c3.549,2.156,6.689,7.105,9.945,7.052
		c3.31-0.047,6.414-4.896,9.847-7.31c3.83-2.694,0.989-5.933,1.153-8.92c-0.246,0.123-0.492,0.252-0.75,0.381
		c-0.362-0.258-0.726-0.51-1.089-0.762c1.476-1.634,2.448-3.69,4.486-4.855c3.374-1.927,3.579-5.161,2.858-8.429
		c-0.738-3.31-3.807-4.493-7.743-2.823c-2.788,1.177-0.363,3.268-0.281,4.92c0.035,0.773,0.809,1.505,0.926,2.302
		C121.934,127.689,122.156,129.341,119.767,128.919z M103.477,229.349c-0.972-3.386-5.189-5.887-4.059-8.54
		c1.054-2.489,5.031-3.737,7.731-5.529c0.117-0.076,0.24-0.141,0.357-0.217c4.961-3.216,7.532-2.384,10.42,3.789
		c-1.505-0.796-2.788-1.921-4.123-2.98c-0.82-0.65-1.453-1.939-2.835-1.037c-2.952,1.922-5.904,3.836-8.845,5.775
		c-0.445,0.293-0.867,0.598-0.82,1.313c0.141,2.377,5.301,7.648,7.732,7.742c7.767,0.305,15.499-0.444,23.242-0.813
		c1.716-0.076,2.437-0.744,2.894-2.349c1.418-4.961,0.932-9.746-0.896-14.479c-0.352-0.907-1.224-2.343-0.931-2.647
		c2.882-2.987-0.129-5.055-1.102-7.293c-1.054-2.436-3.017-4.521-3.831-7.005c-1.499-4.598-4.123-8.745-2.073-14.38
		c3.151-8.656,4.961-17.806,7.685-28.021c-5.799,4.721-10.52,8.658-15.346,12.453c-1.676,1.318-2.577,2.448-2.085,4.861
		c0.608,2.999-1.348,4.814-4.259,5.166c-2.653,0.316-4.879-2.348-4.738-5.283c0.047-1.042,1.212-2.12,0.006-3.115
		c-5.254-4.323-10.537-8.628-16.465-13.484c0,1.839-0.152,2.554,0.018,3.186c1.974,7.181,4.311,14.28,5.863,21.544
		c0.902,4.217,3.854,8.082,0.258,13.307c-2.126,3.088-3.274,7.756-5.605,11.012c-2.688,3.737,0.146,7.838-2.185,11.404
		c-1.341,2.063-1.312,4.879-1.125,7.434c0.604,8.235,0.697,8.312,9.559,7.251c-1.23-2.138-2.308-4.253-3.62-6.22
		c-1.008-1.506-0.838-2.35,0.714-3.357c5.436-3.531,10.801-7.175,16.149-10.83c1.042-0.714,1.78-1.083,2.882-0.012
		c5.723,5.564,11.521,11.047,17.876,17.127c-6.144,1.049-11.568,1.488-16.676,2.987c-4.744,1.389-7.356-0.702-9.875-3.954
		c-0.492-0.626-1.5-1.224-0.563-2.031c0.902-0.768,1.447,0.257,2.05,0.796c1.43,1.288,2.097,4.065,4.159,3.837
		c5.518-0.604,10.965-1.799,15.604-2.619c-4.124-4.521-8.306-9.09-12.44-13.693c-1.061-1.184-1.934-1.172-3.233-0.27
		c-4.499,3.15-9.103,6.162-13.642,9.254c-0.557,0.381-1.283,0.873-1.424,1.447C95.376,222.812,100.917,229.108,103.477,229.349z
		 M45.671,186.877c7.14,1.641,12.406,5.424,15.094,12.283c2.536,6.479,1.125,13.038-3.614,17.508
		c-4.445,4.188-10.859,5.266-16.5,2.775c-5.57-2.466-9.137-8.117-8.926-14.15c0.217-6.285,5.161-11.152,11.428-11.264
		c6.431-0.111,11.755,4.861,12.001,11.211c0.176,4.475-3.169,8.246-7.608,8.574c-4.534,0.328-8.481-2.799-8.985-7.134
		c-0.328-2.765,0.879-4.721,3.444-5.588c2.267-0.772,4.188,0.105,5.465,2.108c0.703,1.09,1.248,2.613,0.012,3.433
		c-1.318,0.867-1.828-0.498-2.302-1.587c-0.404-0.932-1.148-1.717-2.308-1.26c-1.242,0.498-1.517,1.629-1.283,2.823
		c0.568,2.87,2.337,4.476,5.295,4.429c2.911-0.041,4.75-1.57,5.201-4.517c0.686-4.563-2.7-8.968-7.409-9.7
		c-4.674-0.731-9.39,2.789-10.104,7.539c-0.914,6.092,4,12.569,10.204,13.448c6.73,0.954,13.138-3.479,14.122-9.782
		c1.405-9.008-5.131-17.331-14.198-18.063c-9.05-0.726-16.975,6.385-17.004,15.452c-0.023,8.311,3.965,14.42,11.41,17.741
		c7.292,3.251,14.345,2.103,20.483-3.228c4.827-4.193,6.08-9.758,6.712-15.867c0.445-4.363,1.628-8.124-3.468-10.83
		c-3.409-1.805-2.431-8.681-5.752-8.868C53.655,184.165,49.695,186.449,45.671,186.877z M162.231,168.731
		c0-1.903-0.082-3.415,0.012-4.915c0.551-8.182,7.369-14.637,15.311-14.561c7.885,0.082,14.538,6.455,15.007,14.373
		c0.387,6.566-4.563,12.172-11.07,12.559c-6.255,0.369-11.843-4.586-12.294-10.906c-0.334-4.65,2.957-8.657,7.526-9.161
		c4.076-0.445,8.446,3.104,8.974,7.31c0.352,2.765-0.855,4.656-3.409,5.611c-2.589,0.96-4.388-0.375-5.682-2.407
		c-0.574-0.908-1.037-2.303,0.1-3.087c1.405-0.973,1.933,0.269,2.337,1.394c0.475,1.324,1.465,1.758,2.659,1.16
		c1.194-0.586,1.253-1.746,0.949-2.929c-0.756-2.905-2.765-4.27-5.611-4.065c-2.87,0.205-4.616,1.875-4.886,4.867
		c-0.433,4.874,3.28,9.097,8.26,9.378c4.867,0.27,9.014-3.479,9.33-8.435c0.416-6.431-4.832-12.23-11.545-12.763
		c-6.349-0.498-12.312,4.492-12.938,10.818c-0.885,8.903,5.652,16.529,14.79,17.243c8.48,0.668,16.225-6.425,16.541-15.152
		c0.375-10.303-7.463-18.913-18.018-19.792c-9.641-0.809-18.854,6.841-20.225,16.658
		C157.933,164.895,158.378,167.238,162.231,168.731z M129.36,240.617c-4.217,0-8.452,0.199-12.651-0.069
		c-3.04-0.193-3.866,0.849-3.667,3.761c0.117,1.82,0.832,2.787,2.261,3.631c3.509,2.073,6.959,4.229,10.474,6.303
		c1.03,0.609,1.944,1.511,3.449,0.926c2.923-1.125,4.112,0.632,4.668,3.162c0.832,3.843,1.641,7.686,2.484,11.521
		c0.644,2.958,2.799,3.538,5.424,3.485c2.67-0.064,4.381-1.313,4.516-3.983c0.439-8.551,0.902-17.109-0.363-25.643
		c-0.34-2.297-1.424-3.292-3.941-3.157C137.807,240.781,133.577,240.617,129.36,240.617z M47.212,146.21
		c9.711,2.976,15.744,10.918,14.444,19.001c-0.193,1.172-0.973,2.806,0.38,3.315c1.441,0.545,2.642-1.031,3.292-2.12
		c0.668-1.125,0.691-2.672,0.879-4.054c1.828-13.448,12.664-21.543,26.118-19.446c1.253,0.188,2.548,0.68,3.169-1.154
		c-1.693,0-3.327,0.035-4.967-0.006c-7.286-0.199-14.21-5.395-16.553-12.412c-2.507-7.485-0.679-13.876,5.834-18.626
		c2.114-1.541,1.886-3.134,1.593-5.102c-7.392,2.413-12.078,8.885-12.523,17.244c-0.656,12.441-7.438,20.108-19.657,22.111
		C48.284,145.121,47.698,145.495,47.212,146.21z M95.335,240.617c-3.936,0-7.902,0.316-11.802-0.093
		c-3.937-0.41-5.225,1.335-5.553,4.838c-0.703,7.72-0.416,15.44-0.188,23.159c0.082,2.848,1.405,4.728,4.65,4.839
		c3.163,0.105,5.113-1.137,5.746-4.276c0.445-2.202,0.756-4.439,1.33-6.606c0.984-3.702,0.264-9.208,7.099-7.169
		c0.205,0.058,0.521-0.188,0.762-0.334c4.205-2.549,8.423-5.079,12.604-7.656c2.366-1.452,1.336-3.848,1.16-5.752
		c-0.164-1.804-2.074-0.867-3.157-0.902C103.776,240.548,99.553,240.617,95.335,240.617z M58.681,174.454
		c-1.43,1.042-2.489,1.944-3.655,2.659c-5.119,3.15-10.432,3.373-15.65,0.445c-5.066-2.854-7.667-7.369-7.644-13.227
		c0.035-6.401,5.249-11.574,11.585-11.615c6.115-0.041,11.398,4.903,11.797,11.041c0.293,4.616-3.151,8.635-7.702,8.986
		c-4.27,0.339-8.464-3.141-8.851-7.387c-0.27-2.97,1.061-4.996,3.96-5.588c2.495-0.51,4.404,0.627,5.354,3.04
		c0.369,0.937,0.55,2.108-0.445,2.7c-1.219,0.732-1.71-0.357-2.079-1.295c-0.563-1.429-1.576-2.138-2.946-1.288
		c-1.301,0.808-1.055,2.237-0.586,3.444c0.99,2.519,2.952,3.854,5.623,3.514c2.601-0.34,4.316-1.921,4.668-4.697
		c0.604-4.732-3.052-9.172-7.966-9.676c-4.656-0.468-9.155,3.351-9.6,8.165c-0.58,6.279,4.194,12.049,10.754,13.01
		c6.068,0.885,12.417-3.579,13.554-9.529c1.675-8.828-4.616-17.221-13.812-18.41c-8.517-1.101-16.928,6.016-17.373,14.685
		c-0.709,13.999,13.272,23.974,26.305,18.849C57.38,180.943,59.448,178.97,58.681,174.454z M105.346,125.299
		c5.904,0.211,5.904,0.211,5.904-5.33c0-13.109,0.076-26.211-0.059-39.314c-0.035-2.513,1.499-6.42-0.844-7.292
		c-2.964-1.095-5.289,2.296-7.603,4.364c-2.25,2.026-1.757,3.315,0.451,4.814c1.775,1.219,3.028,2.765,3.11,5.189
		c0.199,5.834,0.123,11.656,0.726,17.514C107.724,111.863,106.505,118.522,105.346,125.299z M119.175,125.17
		c-3.251-12.371-1.893-24.87-1.061-37.358c0.117-1.763,0.48-3.502,2.074-4.387c4.621-2.565,2.482-4.868-0.164-7.164
		c-0.943-0.832-1.939-1.628-3.018-2.273c-2.805-1.663-4.094-1.382-4.047,2.46c0.188,14.502,0.076,29.005,0.076,43.508
		C113.036,125.733,113.036,125.733,119.175,125.17z M88.313,151.165c-2.062,1.582-3.608,3.011-5.377,4.065
		c-2.8,1.663-3.21,3.62-2.015,6.619c2.185,5.471,3.953,11.104,5.921,16.669c0.322,0.914,0.585,2.372,1.212,2.577
		c3.819,1.277,6.408,4.007,8.587,7.334c0.428-0.229,0.855-0.451,1.277-0.674C94.756,175.719,91.599,163.676,88.313,151.165z
		 M126.596,187.627c0.457,0.182,0.914,0.369,1.37,0.557c1.799-3.187,4.153-5.693,7.715-6.689c1.177-0.328,1.312-1.395,1.622-2.284
		c2.19-6.232,4.3-12.499,6.514-18.731c0.504-1.435,0.819-2.612-0.656-3.714c-2.226-1.663-4.363-3.444-7.005-5.553
		C132.863,163.734,129.735,175.684,126.596,187.627z M111.18,159.834c1.065-4.206-0.609-7.093-4.112-9.243
		c-1.312-0.808-2.413-1.945-3.608-2.923c-5.635-4.622-5.57-4.54-11.386,0.223c-1.875,1.541-2.197,2.36-0.082,3.977
		c4.475,3.409,8.704,7.158,13.167,10.59c1.692,1.3,3.257,4.212,5.395,3.198C112.386,164.789,110.834,161.791,111.18,159.834z
		 M113.042,159.271c0,2.092-0.035,3.503,0.006,4.908c0.07,2.203,1.131,2.408,2.671,1.166c5.799-4.691,11.557-9.448,17.367-14.122
		c1.218-0.972,1.065-1.522,0.012-2.589c-5.734-5.834-6.15-5.904-12.348-0.82c-1.089,0.896-2.12,1.875-3.292,2.636
		C113.991,152.723,111.871,155.558,113.042,159.271z M79.96,238.814c10.502,0,19.997,0.058,29.485-0.029
		c3.222-0.029,1.541-2.666,1.805-4.13c0.292-1.651,0.375-3.298-2.326-3.327c-5.336-0.07-10.689-0.246-16.002-0.785
		C86.649,229.898,83.814,234.022,79.96,238.814z M144.191,238.82c-3.046-4.171-5.512-7.979-9.835-8.172
		c-6.438-0.293-12.915,0.34-19.364,0.803c-3.297,0.234-1.505,3.005-1.833,4.639c-0.281,1.424-0.176,2.771,2.015,2.76
		C124.534,238.779,133.894,238.82,144.191,238.82z M136.706,90.425c1.751,3.661,3.865,3.737,6.571,1.74
		c4.112-3.034,6.162-8.428,4.943-13.454c-1.54-6.396-6.724-11.27-13.056-12.277c-5.096-0.809-12.26,1.91-14.427,5.359
		c-0.562,0.885-0.434,1.359,0.129,2.167c1.815,2.595,2.765,0.627,4.065-0.55c3.631-3.286,8.779-3.977,12.968-1.88
		c4.194,2.097,6.829,6.49,6.501,10.977C144.068,87.133,141.128,89.376,136.706,90.425z M80.065,183.838
		c0.076-0.516,0.152-1.031,0.223-1.541c-2.741-3.204-5.471-6.414-8.212-9.611c-4.826-5.623-6.958-5.272-10.051,1.675
		c-0.925,2.073-1.4,4.246-1.482,6.536c-0.076,2.039,0.369,3.075,2.776,2.999C68.901,183.721,74.489,183.838,80.065,183.838z
		 M143.969,182.42c0.141,0.469,0.281,0.943,0.421,1.418c5.471,0,10.942-0.094,16.401,0.046c2.167,0.059,3.075-0.515,2.97-2.788
		c-0.217-4.721-1.834-8.732-5.348-11.949c-1.031-0.948-1.793-1.569-3.023-0.075C151.665,173.587,147.788,177.98,143.969,182.42z
		 M96.442,80.685c3.526-1.74,3.274-3.86,1.171-6.402c-3.245-3.948-8.387-5.518-13.308-3.948c-4.797,1.541-8.353,5.939-8.54,10.947
		c-0.205,5.582,2.027,10.092,6.49,13.49c1.395,1.06,1.951-0.059,2.7-0.879c0.809-0.89,0.885-1.488-0.182-2.366
		c-1.282-1.055-2.53-2.296-3.374-3.708c-2.003-3.35-2.483-6.987-0.193-10.361c1.962-2.882,4.926-4.188,8.464-3.491
		C93.326,74.692,95.335,77.27,96.442,80.685z M146.317,159.658c-0.188,0.211-0.451,0.398-0.545,0.645
		c-2.12,5.957-4.275,11.908-6.291,17.906c-0.287,0.872-1.681,2.148-0.188,2.875c1.301,0.633,2.906,0.984,4.177-0.65
		c1.728-2.225,3.661-4.281,5.482-6.437C155.917,165.762,155.917,165.762,146.317,159.658z M77.576,159.529
		c-2.63,2.244-5.406,4.586-8.112,6.994c-0.082,0.076,0.422,0.925,0.761,1.323c3.62,4.282,7.287,8.528,10.895,12.821
		c1.183,1.418,2.695,0.943,3.86,0.463c1.646-0.686,0.217-1.979-0.064-2.822c-1.827-5.588-3.824-11.117-5.758-16.67
		C78.894,160.871,78.847,159.975,77.576,159.529z M92.149,138.982c1.136,0.135,2.607-0.31,4.1-0.75
		c1.458-0.434,2.056-1.102,1.669-2.741c-0.457-1.939-1.476-1.523-2.812-1.142c-5.113,1.458-9.571,0.257-12.792-3.989
		c-3.198-4.218-3.784-8.657-0.041-13.074c1.049-1.236,0.557-3.157-0.287-3.889c-1.3-1.107-2.144,0.726-2.894,1.546
		c-3.982,4.34-4.217,9.301-2.038,14.514C79.479,135.28,85.343,139.046,92.149,138.982z M142.609,110.949
		c-0.321,2.343-1.347,3.948-0.035,6.033c2.349,3.69,3.011,7.755,0.012,11.387c-3.011,3.649-6.888,4.053-10.988,1.734
		c-1.651-0.938-2.401,0.398-3.081,1.294c-1.112,1.494,0.563,1.927,1.371,2.407c2.894,1.728,6.027,2.255,9.33,1.376
		c4.985-1.33,8.131-4.686,9.073-9.565C149.393,119.981,147.243,115.219,142.609,110.949z M156.497,197.473
		c-4.527,1.395-5.846,3.503-5.371,7.697c0.662,5.904-2.249,10.566-7.45,13.576c-1.195,0.686-2.542,1.225-3.878,1.547
		c-2.062,0.486-1.763,2.085-1.546,3.333c0.316,1.774,1.815,0.86,2.706,0.626c5.107-1.358,8.949-4.387,11.785-8.885
		C156.169,209.926,154.945,203.688,156.497,197.473z M132.916,73.111c-2.489-0.047-5.582,1.564-7.053,3.315
		c-1.358,1.617-0.257,2.483,0.686,3.538c1.44,1.605,1.692-0.117,2.366-0.791c2.788-2.806,6.438-2.501,8.095,0.644
		c0.551,1.037,1.043,2.267-0.047,3.075c-1.411,1.054-1.851-0.234-2.343-1.3c-0.504-1.089-1.26-2.003-2.624-1.3
		c-1.417,0.727-1.394,2.067-0.954,3.31c0.954,2.724,2.91,4.176,5.833,3.778c2.899-0.387,4.446-2.285,4.692-5.143
		C141.954,77.639,137.713,73.205,132.916,73.111z M69.194,163.231c2.261-1.382,4.124-2.817,5.26-5.295
		c1.985-4.346,5.506-7.082,10.156-8.153c2.554-0.586,4.388-1.957,6.209-3.972C79.843,143.773,69.487,152.22,69.194,163.231z
		 M82.631,82.289c0.188,2.706,1.277,4.868,3.292,6.613c1.417,1.23,2.442,1.265,3.842-0.234c1.933-2.074-0.404-2.05-1.125-2.858
		c-0.551-0.621-1.195-1.218-1.558-1.945c-0.509-1.025-0.796-2.284,0.492-2.94c1.277-0.65,1.588,0.503,2.003,1.411
		c0.574,1.283,1.464,2.173,2.929,1.23c1.312-0.838,1.171-2.126,0.644-3.368c-1.112-2.612-3.099-4.053-5.951-3.526
		C84.212,77.234,82.725,79.296,82.631,82.289z M76.264,202.615c-1.47,7.932,2.044,14.362,9.331,17.291
		c0.938-2.132,0.855-3.748-1.382-5.236c-2.671-1.792-4.217-4.568-4.299-7.813C79.854,204.455,78.695,203.33,76.264,202.615z
		 M148.045,202.346c-1.522,1.066-3.567,1.148-3.632,3.591c-0.104,3.649-2.015,6.133-5.307,7.397
		c-2.015,0.779-1.581,2.063-1.112,3.381c0.609,1.739,1.804,0.737,2.759,0.38C146.353,214.975,149.123,209.557,148.045,202.346z
		 M84.61,118.569c-2.905,4.622-2.108,7.749,0.24,10.42c2.741,3.116,6.203,4.077,11.205,1.705
		C90.392,128.251,85.882,125.405,84.61,118.569z M113.042,265.219c0,1.892-0.141,3.168,0.035,4.404
		c0.193,1.324-1.014,3.632,1.459,3.644c2.77,0.023,6.073,1.347,8.088-1.921c0.855-1.4,0.305-2.344-1.218-2.895
		C118.782,267.491,116.193,266.442,113.042,265.219z M111.115,265.301c-2.993,1.159-5.359,2.056-7.708,2.998
		c-1.001,0.398-2.355,0.568-2.097,2.156c0.193,1.178,0.908,2.015,2.009,2.536c4.592,2.185,8.019,0.088,7.955-4.903
		C111.262,267.292,111.18,266.495,111.115,265.301z M165.178,187.809c3.169-3.245,7.327-2.765,10.824-5.336
		c-4.609-1.4-7.655-4.217-10.73-7.041C166.401,179.397,165.852,183.146,165.178,187.809z M110.922,248.865
		c-4.124,2.478-7.989,4.756-11.791,7.134c-0.686,0.422-2.185,0.598-1.412,2.05c0.832,1.582,1.957,0.551,2.87,0.117
		c2.8-1.323,5.494-2.881,8.329-4.111C111.18,253.07,111.771,251.582,110.922,248.865z M114.226,249.907
		c-0.469-0.059-1.125-0.035-1.148,0.668c-0.035,0.902-0.574,2.097,0.516,2.647c3.719,1.875,7.497,3.626,11.258,5.424
		c0.785,0.375,1.335,0,1.733-0.645c0.732-1.165-0.41-1.44-1.013-1.815c-2.596-1.634-5.243-3.192-7.879-4.756
		C116.639,250.798,115.713,249.849,114.226,249.907z M140.483,119.149c-2.36,2.132-3.403,5.283-6.414,6.748
		c-2.085,1.019-0.866,2.19,0.785,2.642c2.114,0.58,3.954-0.088,5.313-1.681C142.136,124.556,141.989,122.008,140.483,119.149z
		 M113.487,254.893c-0.773,1.985-0.398,3.156,1.364,3.988c2.407,1.131,4.728,2.466,7.105,3.667c0.743,0.368,1.511,1.44,2.331-0.141
		c0.738-1.424,0.199-1.968-0.996-2.56C120.036,258.26,116.814,256.585,113.487,254.893z M110.863,254.916
		c-3.362,1.698-6.678,3.414-10.028,5.066c-1.042,0.516-1.464,1.019-0.919,2.249c0.603,1.358,1.259,1.03,2.231,0.491
		c2.442-1.347,4.908-2.658,7.415-3.865C111.285,258.025,111.73,256.866,110.863,254.916z M131.247,125.042
		c2.734-1.6,2.986-4.03,2.682-6.596c-0.105-0.89-0.24-2.19-1.517-2.138c-0.92,0.041-1.886,0.51-2.7,1.001
		c-1.348,0.814-0.334,1.687,0.164,2.425C130.942,121.275,130.72,123.144,131.247,125.042z M93.197,125.159
		c0.422-1.798,0.299-3.608,1.184-5.201c0.398-0.732,1.675-1.576,0.445-2.472c-0.861-0.621-2.056-1.23-3.034-1.136
		c-1.301,0.129-1.406,1.616-1.441,2.683C90.28,121.434,90.526,123.788,93.197,125.159z M101.151,266.291
		c8.317-1.248,10.134-2.502,9.565-6.121C107.354,262.056,103.752,263.414,101.151,266.291z M122.683,267.081
		c0.223-0.34,0.445-0.68,0.668-1.03c-2.003-2.479-5.154-3.34-7.825-4.862c-0.609-0.351-1.622-1.769-2.331-0.234
		c-0.451,0.984-0.328,2.237,1.061,2.788C117.071,264.844,119.878,265.969,122.683,267.081z M86.222,186.59
		c2.278,3.069,4.609,4.85,8.206,4.762C93.941,185.84,90.21,186.59,86.222,186.59z M112.041,173.411
		c1.787-0.164,2.981-1.089,3.063-2.835c0.082-1.757-1.024-2.905-2.776-2.993c-1.78-0.088-2.905,0.949-2.976,2.747
		C109.27,172.129,110.354,173.095,112.041,173.411z M82.854,207.126c0.703,2.36,1.324,4.779,3.784,5.605
		c0.919,0.311,1.324-1.236,1.3-1.833C87.803,207.828,84.81,208.139,82.854,207.126z M85.595,98.766
		c-1.535,0.938-1.154,2.624-1.423,4.042c-0.193,1.031,0.223,1.558,1.388,1.289c1.517-0.34,2.062-1.195,1.699-2.73
		C87,100.313,87.188,99.047,85.595,98.766z M140.091,102.216c-0.422-1.142,0.199-3.146-1.663-3.228
		c-1.395-0.064-1.143,1.675-1.377,2.706c-0.392,1.734,0.762,2.332,2.12,2.419C140.595,104.201,139.962,102.995,140.091,102.216z
		 M123.392,97.155c0,3.579,0,6.003,0,8.417C124.546,103.17,125.577,100.763,123.392,97.155z M141.063,207.038
		c-1.875,0.837-3.854,1.481-5.377,3.521C139.071,211.297,140.29,209.475,141.063,207.038z M101.104,105.514
		c-0.562-2.495,1.125-5.359-1.188-7.978C99.5,101.636,99.506,101.677,101.104,105.514z M134.034,190.263
		c-4.557-0.346-4.557-0.346-3.443,3.538C132.02,192.881,133.238,191.873,134.034,190.263z"/>
	<path fill-rule="evenodd" clip-rule="evenodd" d="M105.785,200.186c4.258-0.158,8.511-0.357,12.804,1.165c-4.258,0-8.522,0-12.78,0
		C105.803,200.964,105.791,200.577,105.785,200.186z"/>
	<path fill-rule="evenodd" clip-rule="evenodd" d="M105.006,192.77c2.296,1.33,2.765,3.603,3.327,5.828
		C105.861,197.355,105.311,195.13,105.006,192.77z"/>
	<path fill-rule="evenodd" clip-rule="evenodd" d="M121.594,211.882c2.53-2.144,4.492-2.823,6.8-2.806
		C126.865,210.723,125.132,211.952,121.594,211.882z"/>
	<path fill-rule="evenodd" clip-rule="evenodd" d="M116.451,198.797c-0.293-2.601,0.954-4.486,2.847-7.041
		C119.849,195.394,117.763,196.934,116.451,198.797z"/>
	<path fill-rule="evenodd" clip-rule="evenodd" d="M103.635,208.93c-2.197-0.293-4.124-1.113-5.957-2.624
		C100.613,205.803,101.163,206.024,103.635,208.93z"/>
	<path fill-rule="evenodd" clip-rule="evenodd" d="M120.797,208.965c1.084-2.378,3.181-2.94,6.068-3.689
		C125.284,208.273,122.788,208.156,120.797,208.965z"/>
	<path fill-rule="evenodd" clip-rule="evenodd" d="M98.773,215.291c-2.823-0.557-4.082-1.969-5.699-4.064
		C96.079,211.413,97.269,212.925,98.773,215.291z"/>
	<path fill-rule="evenodd" clip-rule="evenodd" d="M120.861,137.629c-5.289,5.758-12.294,6.484-17.683-1.423
		c5.758,4.815,11.434,5.764,16.987,0.258C120.398,136.85,120.633,137.242,120.861,137.629z"/>
	<path fill-rule="evenodd" clip-rule="evenodd" d="M122.589,135.925c-0.573,0.568-1.147,1.136-1.728,1.704
		c-0.229-0.387-0.463-0.779-0.696-1.166c0.444-0.433,0.89-0.867,1.335-1.3C121.863,135.415,122.227,135.667,122.589,135.925z"/>
	<path fill-rule="evenodd" clip-rule="evenodd" d="M153.598,189.612c-0.468,1.804-1.276,2.976-3.104,2.993
		c-1.288,0.006-2.308-0.545-1.868-1.95c0.463-1.505,0.99-3.263,3.11-3.21C153.229,187.48,153.165,188.84,153.598,189.612z"/>
	<path fill-rule="evenodd" clip-rule="evenodd" d="M74.36,192.611c-2.19-0.012-3.304-1.049-3.403-2.794
		c-0.105-1.786,1.084-3.028,2.794-3.104c1.693-0.07,2.929,1.008,3.046,2.835C76.92,191.428,75.784,192.33,74.36,192.611z"/>
	<path fill-rule="evenodd" clip-rule="evenodd" d="M88.465,112.823c-1.664-0.047-2.507-0.902-2.56-2.565
		C87.768,110.105,88.641,110.943,88.465,112.823z"/>
	<path fill-rule="evenodd" clip-rule="evenodd" d="M98.609,91.661c-0.445-1.576,0.047-2.232,1.711-1.71
		C100.46,91.233,99.875,91.796,98.609,91.661z"/>
</g>
</svg>
