<?xml version="1.0" encoding="utf-8"?>
<!-- Generator: Adobe Illustrator 16.0.0, SVG Export Plug-In . SVG Version: 6.00 Build 0)  -->
<!DOCTYPE svg PUBLIC "-//W3C//DTD SVG 1.1//EN" "http://www.w3.org/Graphics/SVG/1.1/DTD/svg11.dtd">
<svg version="1.1" id="Layer_1" xmlns="http://www.w3.org/2000/svg" xmlns:xlink="http://www.w3.org/1999/xlink" x="0px" y="0px"
	 width="425.197px" height="425.24px" viewBox="18.401 1.88 425.197 425.24" enable-background="new 18.401 1.88 425.197 425.24"
	 xml:space="preserve">
<g id="Layer_1_1_">
</g>
<g id="Layer_3">
</g>
<g id="Layer_2">
	<g>
		<path d="M214.607,162.073c-1.014-4.367-2.234-8.695-3-13.104c-2.063-11.867-1.057-23.224,8.916-31.416
			c6.651-5.464,14.229-9.799,21.392-14.64c0.301,0.401,0.603,0.805,0.902,1.205c-3.615,3.201-7.17,6.475-10.858,9.59
			c-15.473,13.076-18.143,28.147-7.619,47.292c1.521-15.07,10.257-24.249,21.842-31.345c3.313-2.029,6.622-4.066,9.87-6.198
			c9.371-6.15,16.772-13.748,18.371-25.557c1.177,11.357-4.394,19.724-12.169,26.831c-5.58,5.1-12.33,9.026-17.394,14.547
			c-4.404,4.801-9.656,10.896-10.137,16.781c-1.006,12.297,0.887,24.833,1.589,37.271c0.609-0.036,1.22-0.072,1.829-0.104
			c6.759-11.628,13.335-23.363,20.317-34.853c7.592-12.487,17.841-22.273,30.856-29.168c5.044-2.673,9.999-5.646,14.563-9.059
			c9.126-6.83,12.294-16.15,9.521-27.163c-1.426-5.66-3.646-11.119-5.505-16.667c2.811,4.116,5.4,8.421,7.295,13.016
			c5.981,14.519,3.105,26.794-8.875,36.983c-4.812,4.091-10.581,7.059-15.367,11.175c-6.465,5.561-13.901,10.805-18.278,17.832
			c-10.899,17.493-20.307,35.916-30.285,53.984c-0.05,0.095,0.331,0.432,0.514,0.655c-0.682-0.705-1.362-1.409-2.042-2.115
			c7.191-6.06,13.976-12.705,21.654-18.065c18.439-12.869,37.082-25.48,56.097-37.48c7.864-4.963,11.198-11.362,11.609-20.129
			c0.162-3.456,0.58-6.958,1.395-10.313c2.334-9.617,10.698-18.116,19.032-19.199c-12.043,9.777-11.97,23.392-13.179,37.774
			c6.903-5.744,16.716-6.938,18.023-17.454c-1.12,1.949-2.241,3.899-3.429,5.967c-6.7-6.487-6.435-7.598,3.854-16.213
			c1.646,3.54,3.206,6.895,5.079,10.925c2.735-3.853,5.412-7.625,8.799-12.396c-3.01,10.62-8.982,17.846-16.467,23.61
			c-17.673,13.607-35.669,26.791-53.535,40.146c-2.034,1.521-4.07,3.046-6.107,4.567c16.249-2.269,31.164-0.456,44.077,9.72
			c5.275,4.158,10.372,3.771,15.245,0.606c3.675-2.388,6.734-5.865,9.67-9.208c4.443-5.06,8.042-10.965,12.943-15.486
			c3.647-3.364,8.794-5.104,13.272-7.567l0.928,1.538c-12.771,5.924-15.167,19.551-23.7,30.725
			c19.14-7.973,33.168-1.516,46.283,10.884c-0.946,0.211-1.156,0.33-1.303,0.277c-0.371-0.14-0.753-0.31-1.065-0.547
			c-14.955-11.287-30.025-13.682-46.186-1.906c-8.615,6.275-17.95,5.345-27.15,0.036c-5.622-3.244-11.432-6.901-17.62-8.278
			c-20.44-4.555-37.215,3.35-51.729,17.276c-0.862,0.829-1.44,1.956-2.754,3.785c35.936-17.343,71.699-8.571,84.601,1.006
			c-23.475-5.854-46.194-5.263-68.703,1.819c20.932,0.398,40.281,11.763,61.729,8.643c-3.109,1.438-6.258,2.938-9.362,2.854
			c-12.821-0.343-25.653-0.854-38.435-1.896c-13.006-1.062-25.894-2.095-37.123,6.325c-2.112,1.584-4.491,4.215-4.776,6.596
			c-0.994,8.312,0.656,17.099-7.666,21.438c-11.375,5.929-29.346-4.63-36.227-13.186c-6.697-8.329-7.085-16.869-18.521-20.495
			c-15.463-4.899-36.129,3.102-52.094,3.512c-13.491,0.347-29.841-8.155-35.781-17.05c16.712,11.351,34.353,13.715,53.168,8.737
			c11.896-3.146,23.904-5.409,36.469-3.633c-4.658-2.798-9.33-5.271-14.219-7.181c-4.691-1.831-9.609-3.08-15.613-4.955
			c15.275-2.521,28.07,1.098,41.003,8.594c-10.362-17.71-24.327-22.282-41.651-14.563c-2.799,1.248-5.6,2.501-8.436,3.661
			c-11.034,4.513-21.253,3.041-30.505-4.442c-4.774-3.859-9.185-8.179-14.063-11.89c-16.129-12.272-38.321-9.48-51.09,6.246
			c-0.774,0.954-1.51,1.938-2.26,2.91c-0.62,0.803-1.235,1.611-1.85,2.416c3.725-10.249,10.646-17.447,20.562-21.379
			c18.846-7.471,34.896-1.176,49.696,11.166c-2.939-8.717-6.013-16.88-9.439-24.895c-5.777-13.514-14.299-24.084-30.119-26.388
			c7.788-1.392,14.741,0.338,21.154,4.527c9.125,5.959,14.583,14.749,18.748,24.481c2.654,6.198,4.72,12.672,7.698,18.7
			c6.037,12.224,9.893,13.353,22.063,7.489c3.311-1.593,6.643-3.169,10.057-4.523c8.362-3.313,16.767-3.129,25.152,0.028
			c1.411,0.531,2.864,0.946,5.343,1.755c-4.481-7.489-8.086-14.17-12.403-20.354c-1.466-2.1-4.574-3.575-7.207-4.225
			c-5.527-1.358-11.404-1.421-16.829-3.045c-7.481-2.242-11.325-7.037-12.125-13.516c7.764,8.095,18.064,6.396,28.509,8.731
			c-11.052-18.88-22.476-35.215-44.324-40.373c-4.655-1.099-8.94-3.772-13.396-5.721c5.947,0.436,11.321,2.408,16.868,3.284
			c13.819,2.182,24.835,8.975,33.978,19.246c2.231,2.507,4.468,5.007,6.226,6.975c2.634-7.168,4.75-14.349,7.938-21.018
			c1.627-3.405,1.896-5.9,0.081-9.018c-3.904-6.71-8.251-13.244-11.361-20.312c-7.331-16.655,1.442-31.338,19.584-33.041
			c4.934-0.465,9.996,0.451,16.465,0.817c-7.746,1.824-14.141,2.559-19.912,4.859c-10.168,4.053-13.609,12.428-9.368,22.48
			c3.364,7.974,7.733,15.526,12.122,24.188c2.025-2.277,3.38-4.07,5-5.576c13.803-12.826,27.656-25.608,44.546-34.435
			c13.334-6.964,28.292-9.594,39.66-6.745c-19.656-0.281-35.392,7.509-49.237,19.407c-8.837,7.594-17.282,15.69-25.442,24.01
			c-22.931,23.38-24.135,36.679-6.981,64.615c7.698,12.536,14.834,25.417,22.219,38.145c0.749,1.291,1.46,2.6,2.522,4.495
			c3.916-19.223,1.762-34.325-6.813-49.902L214.607,162.073z"/>
		<path d="M394.754,137.891c-8.077,6.731-9.373,18.809-22.687,21.813c1.884-6.632,2.339-12.861,5.304-17.482
			C380.905,136.716,387.461,136.053,394.754,137.891"/>
		<path d="M403.915,220.919c-5.103-8.841-16.396-13.423-14.414-25.567C406.024,201.126,409.882,207.658,403.915,220.919"/>
		<path d="M163.025,147.971c-10.732,0.447-13.052-1.313-25.863-18.816c6.049,1.053,11.876,0.399,14.979,2.998
			C156.621,135.908,159.124,142.018,163.025,147.971"/>
		<path d="M124.071,151.717c-1.404-4.66-2.611-8.666-3.821-12.672c-0.321,0.083-0.643,0.169-0.964,0.253l1.501,6.813
			c-0.692,0.204-1.385,0.409-2.078,0.612c-2.508-7.296-5.016-14.593-7.938-23.086C128.038,131.064,132.548,140.861,124.071,151.717"
			/>
		<path d="M338.849,172.94c5.392-9.769,14.458-11.197,24.116-3.916c-9.151,2.793-15.031,12.953-26.87,10.274
			c2.117-2.583,3.932-4.799,6.145-7.502C340.903,172.248,340.193,172.487,338.849,172.94"/>
		<path d="M389.16,219.554c-4.814,2.927-9.368,2.374-14.102,0.47c-7.914-3.189-5.668-10.614-7.521-16.459
			C379.114,203.316,382.012,213.921,389.16,219.554"/>
		<path d="M111.772,239.912c9.053-0.058,16.261-9.011,26.332-3.176c-3.569,3.607-6.502,8.152-10.673,10.389
			C122.227,249.918,116.002,246.515,111.772,239.912"/>
		<path d="M138.636,108.708c-3.852-2.084-8.541-3.406-11.344-6.46c-3.207-3.493-4.74-8.525-7.494-13.841
			C138.229,92.993,142.508,97.974,138.636,108.708"/>
		<path d="M246.005,59.424c-2.506-6.363-2.331-12.228,3.998-16.126c4.458-2.746,9.103-2.455,13.997,0.593
			C257.109,48.716,255.771,58.72,246.005,59.424"/>
		<path d="M399.246,182.869c4.827-1.264,8.66-2.271,12.853-3.371c-2.523-0.239-4.785-0.455-7.701-0.732
			c4.976-3.646,9.587-3.916,14.229-1.219c3.741,2.174,6.458,5.174,6.231,10.037C416.551,185.127,407.573,190.91,399.246,182.869"/>
		<path d="M139.806,70.34c17.744-2.325,23.127,0.158,22.688,9.483C152.649,82.759,144.947,80.109,139.806,70.34"/>
		<path d="M121.197,78.937c-3.036,10.221-13.552,12.785-26.372,2.619c6.37-3.336,12.382-7.721,20.316-3.692
			c-2.146,0.756-3.983,1.398-5.819,2.044c0.049,0.229,0.101,0.46,0.151,0.689C113.165,80.074,116.854,79.55,121.197,78.937"/>
		<path d="M197.232,66.939c7.302,7.884,5.945,16.38-3.056,20.898c0.062-0.868,0.125-1.732,0.209-2.811
			c-2.194,1.796-3.998,3.273-6.077,4.977C184.265,78.908,194.287,74.506,197.232,66.939"/>
		<path d="M342.816,230.275h13.694c-3.438-1.102-5.226-1.673-7.543-2.414c7.712-3.751,14.032-1.427,20.816,1.762
			C356.004,240.421,349.212,240.664,342.816,230.275L342.816,230.275z"/>
		<path d="M66.018,160.74c16.976-7.42,24.351-2.728,26.114,6.377c-3.688-0.848-7.103-1.634-10.519-2.419
			c-0.064,0.187-0.131,0.374-0.196,0.56c1.324,0.779,2.648,1.563,4.372,2.578C77.228,170.078,71.889,165.704,66.018,160.74"/>
		<path d="M78.619,206.734c-0.689-0.05-1.381-0.104-2.073-0.155c0.294-4.195-0.171-8.627,1.048-12.534
			c2.28-7.307,9.544-5.337,14.926-6.79C94.26,198.263,83.956,200.74,78.619,206.734"/>
		<path d="M368.456,124.588c4.912-11.168,15.409-9.406,22.71-13.934c0.538,11.456-6.576,17.934-15.795,14.991
			c1.442-0.643,3.004-1.339,5.889-2.622C376.234,123.636,372.729,124.067,368.456,124.588"/>
		<path d="M196.832,127.07c9.628,3.814,10.583,12.213,10.797,20.928C196.277,148.545,192.799,141.863,196.832,127.07"/>
		<path d="M67.441,194.559c6.066,9.187-1.905,15.61-4.53,23.562c-2.504-3.549-4.94-7.254-5.658-11.264
			C55.919,199.396,62.914,197.885,67.441,194.559"/>
		<path d="M123.335,213.847c-9.249-2.144-15.409-6.794-15.563-16.722C122.923,199.003,127.059,203.505,123.335,213.847"/>
		<path d="M348.278,84.591c-3.87,7.261-1.604,17.021-11.212,21.733V94.003c-1.278,2.96-1.967,4.548-2.945,6.815
			C332.6,89.158,337.285,83.895,348.278,84.591"/>
		<path d="M104.138,222.79c-0.96,5.046-3.879,7.537-8.185,8.341c-7.361,1.374-11.847-3.502-17.237-7.979
			c6.824-2.249,12.775-5.612,19.979-1.641c-2.108,0.62-3.644,1.071-5.179,1.52c0.063,0.257,0.125,0.513,0.188,0.771
			C97.059,223.477,100.413,223.15,104.138,222.79"/>
		<path d="M309.618,145.83c-0.591-11.65,4.654-17.184,14.132-16.397c-3.235,7.353-0.651,17.854-12.424,21.364
			c0.612-3.954,1.153-7.449,1.935-12.516C311.799,141.311,311.029,142.904,309.618,145.83"/>
		<path d="M259.776,112.979c-0.864-2.303-1.752-4.078-2.176-5.961c-0.398-1.789-0.311-3.688-0.438-5.536
			c-0.316,0.034-0.636,0.069-0.952,0.104c-0.114,2.195-0.226,4.392-0.372,7.188c-5.69-9.901-1.818-19.031,7.751-19.763
			C262.818,96.792,267.771,105.266,259.776,112.979"/>
		<path d="M152.667,98.505c14.967,5.831,17.996,10.924,12.294,20.16C153.211,106.518,153.211,106.518,152.667,98.505"/>
		<path d="M319.296,81.539c-0.511-3.27-1.413-5.905-1.224-8.461c0.457-6.148,7.977-9.155,15.534-6.415
			C329.774,72.78,329.36,82.279,319.296,81.539"/>
		<path d="M302.892,112.874c-1.979-3.638-3.652-6.713-5.965-10.968c0.522,3.087,0.833,4.922,1.248,7.37
			c-7.087-7.168-6.085-13.879,2.48-19.359C302.33,97.159,309.544,103.381,302.892,112.874"/>
		<path d="M214.609,162.063c0,0-0.188-0.217-0.186-0.217c2.458,7.375-0.779,12.298-7.007,15.803
			c-8.166-6.847-1.744-14.196-0.603-22.523C209.863,157.838,212.236,159.952,214.609,162.063"/>
		<path d="M214.638,74.427c0-4.555-1.135-9.151,0.271-12.761c2.047-5.265,7.217-6.262,12.742-5.095
			C224.736,63.296,226.653,72.734,214.638,74.427"/>
		<path d="M278.85,130.482c-6.916-6.355-2.869-14.989,7.617-20.064C290.128,119.351,289.045,126.647,278.85,130.482"/>
		<path d="M94.845,131.281c-3.71,0-8.166,1.269-10.992-0.336c-3.195-1.813-4.932-6.204-7.798-10.159
			C92.134,119.98,94.825,121.58,94.845,131.281"/>
		<path d="M165.096,240.579c10.138-14.706,11.185-15.272,19.243-11.368c-1.835,3.45-2.854,8.21-5.717,9.971
			C175.549,241.075,170.741,240.151,165.096,240.579"/>
		<path d="M295.949,66.105c0.659,0.153,1.315,0.31,1.973,0.467c-0.748,4.03-0.505,8.663-2.488,11.944
			c-2.827,4.682-7.946,3.336-12.265,2.012C281.556,70.199,290.722,69.994,295.949,66.105"/>
		<path d="M101.472,115.907c-10.502-0.386-9.198-9.315-11.896-15.898c3.847,0.188,7.883,0.338,10.779,2.232
			C105.933,105.884,102.545,111.132,101.472,115.907"/>
		<path d="M251.483,153.881c-0.636,3.754-1.084,6.407-1.533,9.06c-0.691,0.223-1.38,0.44-2.068,0.662
			c-1.473-3.208-4.181-6.429-4.157-9.625c0.049-6.15,5.205-9.021,10.917-12.329v16.095c-0.513,0.021-1.023,0.045-1.537,0.065
			C252.708,156.849,252.312,155.886,251.483,153.881"/>
		<path d="M164.592,58.831c-7.285,0.391-9.37-1.127-13.193-8.899c14.111-4.02,19.14-1.716,18.452,9.022
			c-2.828-1.219-5.494-2.367-8.161-3.514c-0.093,0.191-0.185,0.385-0.277,0.574C162.299,56.799,163.185,57.583,164.592,58.831"/>
		<path d="M299.129,239.86c-5.578,1.144-11.164,4.253-15.66-0.939c-1.769-2.042-1.886-5.514-2.633-7.939
			C289.624,229.784,296.354,230.729,299.129,239.86"/>
		<path d="M155.263,184.029c-12.955-2.527-15.388-5.285-12.786-14.501C155.95,173.497,157.128,174.836,155.263,184.029"/>
		<path d="M294.068,41.664c-1.833,5.38-2.068,11.751-10.578,12.197c0.991-1.54,1.66-2.581,3.162-4.917
			c-3.552,2.668-5.846,4.392-8.396,6.307C276.005,44.379,279.438,41.556,294.068,41.664"/>
		<path d="M39.416,195.89c4.072-14.713,7.147-17.13,15.559-12.488c-1.554,1.673-3.048,3.278-4.907,5.282
			c1.376-0.13,2.342-0.22,3.587-0.336C51.738,196.306,45.453,195.062,39.416,195.89"/>
		<path d="M292.481,162.161c-5.825-8.132-3.345-12.797,8.3-16.56C303.262,155.093,303.262,155.093,292.481,162.161"/>
		<path d="M195.431,49.186c-5.289-8.705,0.908-15.136,12.586-14.431c-1.414,10.549-1.414,10.549-7.549,12.578v-2.94
			C198.689,46.087,197.245,47.462,195.431,49.186"/>
		<path d="M229.072,90.593c0.654,7.067,4.739,14.766-5.84,18.97c-0.166-3.101-0.313-5.782-0.508-9.397
			c-1.051,1.959-1.705,3.17-2.594,4.824C218.033,96.318,219.984,93.165,229.072,90.593"/>
		<path d="M160.164,171.152c4.161-0.767,8.354-2.875,10.679-1.593c2.457,1.352,3.136,5.934,4.498,8.904
			C166.106,184.247,164.502,176.673,160.164,171.152"/>
		<path d="M103.158,165.616c-0.543,0.438-1.086,0.877-1.629,1.316c-4.926-5.76-9.852-11.52-14.777-17.28
			c0.447-0.383,0.894-0.768,1.342-1.15C95.184,152.396,102.553,156.047,103.158,165.616"/>
		<path d="M61.697,176.481c-8.026,0.371-16.052,0.742-24.567,1.138C45.112,170.437,52.326,169.825,61.697,176.481"/>
		<path d="M405.041,164.637c-6.291,5.646-11.775,10.566-18.209,16.339C388.849,169.273,393.701,165.004,405.041,164.637"/>
		<path d="M231.284,137.837c-2.878-12.553,0.263-18.552,9.437-20.817C237.792,123.48,234.846,129.976,231.284,137.837"/>
		<path d="M224.99,44.661c0.916-10.224,5.651-14.41,17.323-15.212C236.138,34.872,230.924,39.451,224.99,44.661"/>
		<path d="M146.063,66.043c-5.883-2.184-11.766-4.368-17.648-6.554C140.569,56.796,143.914,58.015,146.063,66.043"/>
		<path d="M326.386,175.226c-0.587-0.405-1.171-0.81-1.758-1.214c1.788-10.48,4.636-13.978,13.429-15.376
			C333.881,164.572,330.133,169.899,326.386,175.226"/>
		<path d="M225.531,22.868c-2.954,5.826-5.906,11.65-8.861,17.474C212.781,31.043,217.824,26.242,225.531,22.868"/>
		<path d="M164.371,90.321c-7.093,5.764-13.164,5.108-19.946-2.164C151.074,88.879,157.722,89.598,164.371,90.321"/>
		<path d="M310.192,234.062c6.621,4.298,12.013,7.799,17.404,11.298C317.095,246.753,312.659,243.905,310.192,234.062"/>
		<path d="M123.366,65.546c9.581,2.66,12.48,7.685,9.473,17.526C129.437,76.781,126.524,71.389,123.366,65.546"/>
		<path d="M356.945,68.533c-5.444,2.255-10.889,4.515-17.729,7.35C342.949,67.27,346.801,65.611,356.945,68.533"/>
		<path d="M134.786,152.901c5.93,7.378,5.079,14.069-3.203,20.178C132.737,165.81,133.729,159.55,134.786,152.901"/>
		<path d="M278.338,170.761c-0.56-0.121-1.124-0.24-1.686-0.363c-2.838-9.091-1.157-13.3,6.675-15.7
			C281.607,160.236,279.973,165.5,278.338,170.761"/>
		<path d="M310.064,67.491c-5.284-10.099-3.688-15.602,3.99-18.02C312.813,55.08,311.607,60.526,310.064,67.491"/>
		<path d="M61.083,152.407c-8.813-2.062-11.151-4.101-12.938-11.069C53.863,143.187,59.519,144.802,61.083,152.407"/>
		<path d="M243.857,93.871c-0.556-0.216-1.11-0.431-1.664-0.647c-1.63-9.774,0.223-13.367,7.906-14.745
			C247.971,83.726,245.915,88.798,243.857,93.871"/>
		<path d="M141.742,242.618c4.6-3.028,9.2-6.056,15.058-9.913C154.642,241.668,151.33,243.917,141.742,242.618"/>
		<path d="M325.789,236.274c9.575-0.097,13.007,4.212,11.459,12.889C333.597,245.054,330.248,241.29,325.789,236.274"/>
		<path d="M273.566,68.484c-0.538,5.799-1.021,10.98-1.628,17.534C265.627,77.746,266.125,73.959,273.566,68.484"/>
		<path d="M115.049,119.377c5.458-0.379,10.918-0.757,17.82-1.234C126.638,125.107,123.946,125.292,115.049,119.377"/>
		<path d="M282.97,29.211c-3.987,4.979-7.232,9.028-11.056,13.797C270.275,34.116,272.768,31.014,282.97,29.211"/>
		<path d="M81.603,114.544c-4.916,1.61-9.831,3.221-15.509,5.08C70.084,111.274,72.933,110.229,81.603,114.544"/>
		<path d="M159.845,42.627c0.224-0.624,0.445-1.249,0.668-1.873c9.553-0.777,11.816,0.313,13.969,8.068
			C168.99,46.497,164.417,44.563,159.845,42.627"/>
		<path d="M360.182,106.491c-2.819-10.053-0.463-13.515,7.849-13.715C365.575,97.07,363.203,101.212,360.182,106.491"/>
		<path d="M394.124,131.514c6.835-5.97,11.126-5.249,16.766,2.388C405.138,133.083,400.285,132.391,394.124,131.514"/>
		<path d="M61.388,143.055c8.142-2.253,10.271-0.826,11.204,7.642C68.859,148.151,65.124,145.605,61.388,143.055"/>
		<path d="M314.569,194.095c0.123,0.593,0.245,1.183,0.367,1.774c-4.654,0.98-9.311,1.959-13.963,2.938
			c-0.146-0.702-0.291-1.408-0.436-2.111C304.217,190.776,309.385,192.39,314.569,194.095"/>
		<path d="M186.34,45.538c-0.53,0.623-1.063,1.246-1.595,1.871c-3.666-3.043-7.333-6.088-11.001-9.131
			c0.458-0.566,0.917-1.136,1.375-1.703C179.937,38.139,185.578,38.613,186.34,45.538"/>
		<path d="M199.207,237.754c-4.35,1.984-8.7,3.973-13.836,6.316C188.093,235.707,190.111,234.645,199.207,237.754"/>
		<path d="M326.286,103.782c0.669,5.941,1.202,10.683,1.864,16.569C320.74,114.727,320.349,111.147,326.286,103.782"/>
		<path d="M84.281,94.732c7.767-5.911,11.906-5.717,16.31,0.811C95.022,95.265,90.289,95.031,84.281,94.732"/>
		<path d="M352.867,152.883c3.455-8.18,8.525-9.215,13.542-3.531C362.041,150.49,357.84,151.587,352.867,152.883"/>
		<path d="M367.243,74.167c-2.583,5.147-4.444,8.861-6.307,12.573C357.789,78.536,358.629,76.936,367.243,74.167"/>
		<path d="M377.189,88.939c0.749,0.095,1.497,0.193,2.245,0.293c1.815,4.763,4.161,9.591-3.557,14.643
			C376.397,97.959,376.793,93.448,377.189,88.939"/>
		<path d="M399.17,156.075c7.338-6.42,11.483-5.624,14.336,1.813C409.018,157.322,404.702,156.775,399.17,156.075"/>
		<path d="M212.814,120.238c-6.59-6.02-6.191-8.906,0.771-13.208C213.308,111.756,213.062,115.996,212.814,120.238"/>
		<path d="M43.686,164.717c5.752-5.951,8.898-5.938,14.43,0.677C52.693,165.137,48.6,164.946,43.686,164.717"/>
		<path d="M146.703,217.013c-5.726,2.979-7.997-1.362-11.26-4.231C140.865,209.868,144.186,211.826,146.703,217.013"/>
		<path d="M69.298,135.32c-3.214-2.684-5.93-4.95-8.979-7.498C67.952,125.133,70.443,127.08,69.298,135.32"/>
		<path d="M300.204,50.519c-6.091-4.634-5.848-6.449,0-9.71V50.519"/>
		<path d="M253.012,113.884c-0.395,3.854-0.737,7.22-1.173,11.456C245.959,119.512,246.288,116.938,253.012,113.884"/>
		<path d="M323.58,218.27c1.896-8.05,5.581-6.927,9.986-3.881C330.714,215.498,327.859,216.606,323.58,218.27"/>
	</g>
	<path fill="#FFFFFF" stroke="#000000" stroke-width="5" stroke-miterlimit="10" d="M312.057,258.687
		c-0.06-1.927-0.621-3.802-1.277-5.599c-0.43-1.174-0.941-2.271-1.881-3.125c-0.998-0.904-2.213-1.524-3.258-2.368
		c-1.056-0.849-2.017-1.804-3.111-2.598c-1.485-1.075-2.476-2.669-3.976-3.696c-1.635-1.119-3.506-2.048-5.239-3.008
		c-2.064-1.144-3.841-2.74-5.896-3.889c-1.625-0.906-3.267-1.781-4.888-2.695c-1.638-0.923-3.438-1.531-4.961-2.657
		c-1.586-1.175-2.879-2.688-4.416-3.925c-2.026-1.63-4.252-2.938-6.381-4.42c-1.729-1.203-3.275-2.646-4.679-4.215
		c-0.524-0.586-0.963-1.159-1.352-1.838c-0.451-0.787-1.145-1.285-1.619-2.027c-0.592-0.927-1.023-1.84-1.619-2.757
		c-1.322-2.038-1.992-4.755-2.156-7.157c-0.08-1.168,0-2.372,0-3.543c0-1.241,0.197-2.294,0.435-3.465
		c0.199-0.979,0.738-2.268,1.228-3.119c0.635-1.111,0.846-2.415,1.635-3.438c0.951-1.232,1.834-2.517,2.848-3.699
		c2.553-2.979,5.271-5.734,7.74-8.838c2.684-3.373,5.396-6.758,7.531-10.517c1.32-2.321,1.938-5.325,1.662-7.993
		c-0.236-2.293-2.498-4.095-3.136-6.423c-0.686-2.516-0.672-5.89,0.082-8.366c0.806-2.642,1.736-5.476,2.16-8.175
		c0.095-0.592,0.086-1.131,0.026-1.739c-0.01-0.109-0.135-1.036-0.182-1.135c-0.49-1.009-1.682-1.546-2.512-2.236
		c-1.068-0.889-1.988-1.933-2.83-3.033c-2.986-3.916-5.104-8.135-8.955-11.331c-1.025-0.851-2.131-1.504-3.111-2.455
		c-0.549-0.531-1.229-1.212-1.782-1.638c-0.58-0.445-0.808-0.827-1.316-1.29c-1.414-1.279-2.784-2.734-4.271-3.993
		c0.003-0.078-0.006-0.159-0.016-0.241l0.24,0.231c-0.17-0.717-0.182-1.479-0.439-2.188c-0.397-1.102-0.916-2.153-1.313-3.257
		c-0.435-1.206-0.976-2.372-1.599-3.493c-1.227-2.212-2.77-4.274-4.604-6.02c-2.414-2.292-4.916-3.371-7.689-4.079l1.04-1.007
		c-1.06,0.187-2.07,0.361-3.052,0.558c-0.979-0.195-1.992-0.371-3.051-0.558l1.039,1.007c-2.773,0.708-5.275,1.787-7.689,4.079
		c-1.836,1.744-3.379,3.808-4.604,6.02c-0.623,1.121-1.164,2.287-1.599,3.493c-0.397,1.104-0.916,2.155-1.313,3.257
		c-0.258,0.709-0.271,1.471-0.439,2.188l0.082-0.079c-0.01,0.078-0.018,0.156-0.022,0.233c-1.42,1.226-2.742,2.616-4.104,3.849
		c-0.51,0.463-0.735,0.845-1.315,1.29c-0.556,0.426-1.234,1.105-1.783,1.638c-0.98,0.951-2.086,1.604-3.111,2.455
		c-3.852,3.195-5.969,7.415-8.955,11.331c-0.842,1.102-1.762,2.146-2.83,3.033c-0.83,0.69-2.021,1.229-2.512,2.236
		c-0.047,0.099-0.172,1.024-0.182,1.135c-0.06,0.608-0.066,1.147,0.026,1.739c0.425,2.699,1.355,5.533,2.16,8.175
		c0.754,2.478,0.769,5.852,0.082,8.366c-0.637,2.328-2.897,4.13-3.135,6.423c-0.275,2.668,0.342,5.672,1.662,7.993
		c2.135,3.759,4.848,7.144,7.531,10.517c2.469,3.104,5.188,5.858,7.739,8.838c1.15,1.343,2.127,2.802,3.152,4.236
		c0.381,0.531,0.805,0.928,1.027,1.56c0.235,0.671,0.291,1.392,0.45,2.081c0.168,0.716,0.369,1.369,0.494,2.072
		c0.195,1.107,0.451,2.414,0.818,3.468c0.672,1.93,0.771,4.599-0.059,6.499c-0.789,1.807-1.479,3.584-2.283,5.361
		c-0.328,0.724-0.479,1.429-0.847,2.103c-0.709,1.299-1.514,2.63-2.516,3.762c-1.361,1.538-2.902,2.941-4.59,4.115
		c-2.129,1.482-4.355,2.79-6.383,4.42c-1.535,1.235-2.828,2.75-4.414,3.925c-1.521,1.126-3.324,1.734-4.963,2.657
		c-1.621,0.914-3.261,1.789-4.886,2.695c-2.057,1.147-3.83,2.745-5.896,3.889c-1.734,0.96-3.604,1.89-5.24,3.008
		c-1.5,1.027-2.488,2.621-3.975,3.696c-1.099,0.794-2.058,1.749-3.111,2.598c-1.045,0.844-2.26,1.464-3.258,2.368
		c-0.939,0.854-1.451,1.951-1.879,3.125c-0.658,1.797-1.222,3.672-1.279,5.599c-0.037,1.229-0.059,2.784,0.625,3.857
		c0.82,1.289,2.402,1.122,3.678,1.576c0.564,0.201,1.107,0.315,1.644,0.387c-0.463,0.101-0.924,0.202-1.377,0.314
		c-2.713,0.674-2.347,3.256-2.313,5.427c0.019,1.088,0.104,2.305,0.625,3.27c0.217,0.398,0.662,0.703,0.892,1.074
		c0.276,0.45,0.438,0.952,0.743,1.396c0.791,1.157,1.906,1.9,2.617,3.12c0.879,1.503,2.479,2.6,3.674,3.834
		c1.32,1.365,2.658,2.399,4.339,3.287c0.952,0.504,1.592,1.241,2.475,1.849c1.381,0.947,2.645,1.711,3.844,2.919
		c1.144,1.15,2.592,1.896,3.701,3.014c0.603,0.607,1.146,1.299,1.688,1.96c0.68,0.831,1.504,1.52,2.092,2.401
		c0.84,1.26,1.672,2.526,2.578,3.732c0.879,1.17,2.119,1.907,3.047,3.021c0.555,0.668,1.092,1.105,1.516,1.855
		c0.281,0.502,0.666,0.73,1.006,1.146c0.347,0.423,0.531,1.043,0.847,1.504c0.549,0.808,1.047,1.777,1.682,2.595
		c-2.717,2.451-3.236,6.167-2.861,9.674c0.291,2.712,0.906,5.525,3.109,7.329c0.727,0.593,1.52,1.092,2.33,1.561
		c-1.105,0.188-2.314,1.587-3.012,2.168c-0.939,0.783-1.939,1.579-2.812,2.411c-1.301,1.244-1.92,3.112-3.301,4.229
		c-1.228,0.992-2.885,1.799-3.619,3.286c-0.156,0.317-0.172,0.675-0.33,1.018c-0.641,1.399-1.649,2.47-2.74,3.483
		c-0.332,0.31-0.354,0.606-0.537,0.967c-0.19,0.38-0.526,0.708-0.748,1.082c-0.475,0.799-0.346,1.64-0.346,2.575
		c0,1.357,0.205,2.565,0.855,3.707c0.309,0.538,0.563,0.787,0.83,1.372c0.303,0.669,0.565,1.366,0.637,2.168
		c0.141,1.619,0.098,3.446-0.146,5.045c-0.37,2.443-0.116,4.973-0.305,7.452c-0.146,1.921-0.127,3.906-0.127,5.865
		c0,0.743-0.088,1.547,0.002,2.286c0.082,0.681,0.381,1.321,0.48,2.006c0.186,1.283,0.358,2.621,0.832,3.822
		c0.28,0.717,0.307,1.483,0.705,2.146c0.45,0.75,0.616,1.593,0.918,2.416c0.627,1.714,0.215,3.813,1.623,5.232
		c0.418,0.422,1.25,1.028,1.75,1.313c0.877,0.5,1.897,0.176,2.813,0.046c0.504-0.071,1.021-0.014,1.527-0.122
		c0.664-0.14,1.235-0.562,1.838-0.877c0.727-0.381,1.328-1.083,1.881-1.716c0.834-0.954,1.334-2.27,1.961-3.38
		c0.889-1.569,0.816-3.472,1.119-5.215c0.365-2.086-0.17-4.601,0.912-6.544c0.237-0.429,0.483-0.774,0.686-1.232
		c0.185-0.42,0.123-0.888,0.269-1.25c0.098-0.241,0.489-0.593,0.662-0.843c0.364-0.526,0.774-1.009,1.397-1.242
		c0.619-0.231,0.486-0.182,0.938,0.304c0.495,0.533,1.137,0.921,1.62,1.464c0.57,0.641,0.826,1.521,1.291,2.245
		c0.546,0.846,0.849,1.775,1.298,2.659c0.108,0.216,0.229,0.414,0.35,0.606l-0.072,0.047c0.023-0.012,0.056-0.023,0.078-0.035
		c0.383,0.606,0.801,1.137,1.129,1.816c0.447,0.933,0.832,1.794,1.344,2.683c0.273,0.478,0.318,0.985,0.369,1.524l-0.33,0.214
		c0.13-0.019,0.238-0.063,0.343-0.118c0.075,0.755,0.233,1.383,0.561,2.087c0.525,1.134,0.619,2.25,0.877,3.486
		c0.221,1.061,0.617,2.042,0.777,3.098c0.225,1.496,0.815,2.859,1.063,4.328c0.265,1.568-0.885,4.616,1.658,4.654
		c0.906,0.013,1.771-0.251,2.688-0.251c0.787,0,1.657-0.106,2.44,0c0.601,0.082,1.086,0.431,1.717,0.486
		c0.554,0.052,1.193,0.041,1.759,0.001c0.059,0.021,0.116,0.059,0.176,0.075c1.988,0.591,5.24-0.05,7.346-0.051
		c1.338,0,3.298-0.044,5.298-0.306l-0.08,0.215c0.166,0.058,0.258,0.046,0.434,0.061c0.596,0.049,1.303,0.061,1.896,0.005
		c0.631-0.057,1.117-0.404,1.719-0.486c0.783-0.106,1.652,0,2.441,0c0.916,0,1.78,0.264,2.684,0.251
		c2.545-0.038,1.396-3.086,1.66-4.654c0.246-1.469,0.838-2.832,1.063-4.328c0.158-1.056,0.556-2.037,0.774-3.098
		c0.259-1.236,0.353-2.354,0.88-3.486c0.325-0.704,0.481-1.332,0.559-2.088c0.104,0.057,0.216,0.102,0.343,0.119l-0.33-0.215
		c0.051-0.538,0.098-1.047,0.369-1.523c0.512-0.889,0.897-1.75,1.344-2.683c0.326-0.681,0.746-1.21,1.129-1.816
		c0.025,0.012,0.055,0.023,0.078,0.035l-0.07-0.047c0.121-0.192,0.238-0.393,0.348-0.606c0.449-0.884,0.752-1.813,1.297-2.66
		c0.467-0.724,0.721-1.604,1.291-2.244c0.486-0.543,1.123-0.931,1.623-1.465c0.449-0.483,0.316-0.534,0.937-0.303
		c0.622,0.233,1.032,0.716,1.397,1.242c0.172,0.25,0.564,0.602,0.662,0.843c0.145,0.362,0.084,0.83,0.27,1.25
		c0.199,0.458,0.445,0.805,0.685,1.232c1.082,1.943,0.549,4.458,0.91,6.544c0.305,1.743,0.231,3.646,1.119,5.215
		c0.629,1.11,1.129,2.426,1.963,3.38c0.553,0.633,1.153,1.335,1.883,1.716c0.601,0.315,1.172,0.737,1.836,0.877
		c0.509,0.108,1.022,0.051,1.527,0.122c0.913,0.13,1.936,0.454,2.813-0.046c0.5-0.283,1.331-0.891,1.75-1.313
		c1.407-1.421,0.995-3.52,1.622-5.232c0.302-0.823,0.468-1.666,0.918-2.416c0.398-0.661,0.423-1.429,0.705-2.146
		c0.474-1.201,0.646-2.539,0.832-3.822c0.101-0.685,0.397-1.325,0.479-2.006c0.091-0.739,0.002-1.543,0.002-2.286
		c0-1.959,0.021-3.944-0.127-5.865c-0.188-2.479,0.066-5.009-0.305-7.452c-0.242-1.599-0.287-3.426-0.143-5.045
		c0.068-0.802,0.332-1.499,0.635-2.168c0.266-0.585,0.521-0.834,0.83-1.372c0.65-1.142,0.855-2.35,0.855-3.707
		c0-0.937,0.129-1.776-0.346-2.575c-0.222-0.374-0.556-0.702-0.748-1.082c-0.181-0.359-0.205-0.657-0.537-0.967
		c-1.09-1.015-2.101-2.084-2.74-3.483c-0.158-0.343-0.174-0.699-0.33-1.018c-0.734-1.487-2.393-2.294-3.619-3.286
		c-1.381-1.115-2-2.983-3.301-4.229c-0.871-0.832-1.871-1.628-2.811-2.411c-0.697-0.581-1.906-1.979-3.013-2.168
		c0.812-0.469,1.604-0.968,2.33-1.561c2.203-1.804,2.817-4.617,3.108-7.329c0.377-3.507-0.145-7.223-2.86-9.674
		c0.635-0.816,1.133-1.787,1.682-2.595c0.314-0.461,0.498-1.081,0.847-1.504c0.342-0.416,0.725-0.646,1.006-1.146
		c0.422-0.75,0.961-1.188,1.516-1.855c0.926-1.113,2.168-1.852,3.047-3.021c0.906-1.206,1.738-2.474,2.578-3.732
		c0.588-0.883,1.414-1.57,2.092-2.401c0.541-0.661,1.084-1.353,1.688-1.96c1.108-1.118,2.559-1.862,3.7-3.014
		c1.199-1.208,2.464-1.972,3.843-2.919c0.885-0.606,1.522-1.345,2.478-1.849c1.68-0.888,3.018-1.923,4.338-3.287
		c1.194-1.234,2.795-2.331,3.674-3.834c0.711-1.22,1.825-1.963,2.618-3.12c0.304-0.443,0.466-0.945,0.742-1.396
		c0.228-0.371,0.674-0.676,0.89-1.074c0.524-0.965,0.608-2.182,0.625-3.27c0.034-2.171,0.401-4.753-2.312-5.427
		c-0.453-0.112-0.914-0.215-1.377-0.314c0.535-0.07,1.08-0.186,1.646-0.387c1.272-0.454,2.856-0.287,3.676-1.576
		C312.115,261.471,312.094,259.916,312.057,258.687z M171.295,263.436c0.978-0.323,1.764-0.304,2.742-0.329
		C173.121,263.202,172.207,263.31,171.295,263.436z M176.511,262.847c-0.168,0.02-0.334,0.035-0.502,0.054
		c0.519-0.089,1.035-0.186,1.553-0.239c0.604-0.064,1.214-0.073,1.822-0.082C178.451,262.637,177.502,262.741,176.511,262.847z
		 M271.861,312.969c-0.006-0.029-0.013-0.061-0.019-0.091c0.027-0.025,0.058-0.05,0.084-0.077L271.861,312.969z M201.97,331.112
		c0.125,0.067,0.246,0.146,0.371,0.213c0.121,0.063,0.25,0.141,0.377,0.213c-0.082,0.32-0.158,0.643-0.233,0.967L201.97,331.112z
		 M262.916,268.059l0.021-0.172l0.014,0.237C262.938,268.104,262.927,268.081,262.916,268.059z M212.426,190.317
		c0.002,0.002,0.002,0.004,0.004,0.006c0,0.002,0,0.005-0.002,0.007C212.427,190.324,212.426,190.321,212.426,190.317z
		 M193.594,272.859c-1.115-1.63-1.733-3.433-2.711-5.118c-1.281-2.212-3.508-3.668-5.869-4.511
		c-1.434-0.512-2.799-0.688-4.174-0.697c2.277-0.133,4.558-0.392,6.836-0.18c2.726,0.252,5.365,0.97,7.904,1.971
		c4.453,1.756,9.678,4.196,11.566,8.929c0.346,0.869,0.592,1.74,0.77,2.612l0.01-0.17c0,0.078,0,0.156,0,0.233
		c-0.004-0.021-0.004-0.043-0.01-0.063l-0.66,12.651c0.047-0.012,0.092-0.021,0.137-0.032c0,0.139,0,0.283,0,0.424
		c-0.141-0.154-0.274-0.318-0.42-0.465c-1.295-1.309-2.854-2.352-4.006-3.8c-1.299-1.637-2.518-3.319-3.873-4.917
		C197.193,277.489,195.252,275.285,193.594,272.859z M200.179,313.47c0.08,0.048,0.15,0.065,0.226,0.103
		c-0.136,0.341-0.254,0.681-0.351,1.02l-0.717-1.792C199.594,313.056,199.869,313.288,200.179,313.47z M268.886,332.224
		c-0.055-0.259-0.112-0.519-0.176-0.776c0.07-0.04,0.146-0.086,0.215-0.122c0.125-0.066,0.246-0.146,0.371-0.213L268.886,332.224z
		 M286.257,263.23c-2.365,0.843-4.591,2.299-5.869,4.511c-0.979,1.687-1.599,3.488-2.713,5.118c-1.658,2.427-3.601,4.631-5.5,6.867
		c-1.355,1.598-2.574,3.28-3.873,4.917c-1.15,1.448-2.711,2.491-4.006,3.8c-0.043,0.045-0.084,0.096-0.127,0.142
		c-0.064-0.297-0.134-0.604-0.199-0.912l-0.463-8.856c0.051-1.411,0.121-2.821,0.221-4.23c0.006-0.063,0-0.128,0.004-0.189
		c0.115-0.382,0.24-0.763,0.393-1.143c1.887-4.731,7.111-7.173,11.564-8.929c2.539-1.001,5.18-1.719,7.902-1.971
		c2.28-0.212,4.561,0.047,6.838,0.18C289.052,262.543,287.688,262.719,286.257,263.23z M294.755,262.847
		c-0.99-0.105-1.939-0.21-2.873-0.269c0.61,0.009,1.221,0.018,1.823,0.082c0.519,0.055,1.035,0.15,1.554,0.239
		C295.091,262.883,294.923,262.866,294.755,262.847z M297.23,263.107c0.979,0.025,1.766,0.007,2.741,0.329
		C299.06,263.309,298.146,263.202,297.23,263.107z"/>
	<g>
		<path fill="none" stroke="#000000" stroke-width="3" stroke-miterlimit="10" d="M230.594,209.363
			c-2.328,0.271-3.381-1.002-4.699-2.521c-2.217-2.557-5.366-4.065-7.491-6.723c-2.381-2.978-3.791-6.588-5.927-9.729
			c-1.145-1.684-2.307-3.391-3.633-4.938c-2.553-2.979-5.271-5.734-7.74-8.838c-2.684-3.373-5.396-6.758-7.53-10.517
			c-1.32-2.321-1.938-5.325-1.662-7.993c0.236-2.293,2.498-4.095,3.135-6.423c0.687-2.516,0.672-5.89-0.082-8.366
			c-0.805-2.642-1.736-5.476-2.16-8.175c-0.094-0.592-0.086-1.131-0.026-1.739c0.01-0.109,0.135-1.036,0.182-1.135
			c0.49-1.009,1.682-1.546,2.512-2.236c1.068-0.889,1.988-1.933,2.83-3.033c2.986-3.916,5.104-8.135,8.955-11.331
			c1.025-0.851,2.131-1.504,3.111-2.455c0.549-0.531,1.229-1.212,1.783-1.638c0.58-0.445,0.807-0.827,1.315-1.29
			c1.922-1.739,3.765-3.805,5.916-5.258c2.262-1.526,5.229-2.185,7.674-3.431c4.052-2.065,8.631-5.627,13.414-5.231"/>
		<path fill="none" stroke="#000000" stroke-width="3" stroke-miterlimit="10" d="M224.719,102.987
			c2.267,4.732,1.711,10.444,1.771,15.531c0.061,5.26-0.111,10.516-0.22,15.773c-0.172,8.391,0.429,16.875-0.522,25.229
			c-0.555,4.864-0.621,9.79-1.742,14.575c-0.332,1.419-0.711,2.827-0.986,4.259c-0.27,1.405-0.469,2.823-0.618,4.248
			c-0.105,1.006-0.382,2.266,0.014,3.241c1.352,3.357,5.199,2.966,7.912,4.402c1.19,0.631,2.504,0.924,3.77,1.365"/>
		<path fill="none" stroke="#000000" stroke-width="3" stroke-miterlimit="10" d="M224.812,154.425
			c-0.03-0.85-0.766-1.735-1.116-2.494c-0.4-0.87-0.824-1.737-1.369-2.528c-0.885-1.282-2.092-2.492-3.387-3.361
			c-2.035-1.367-4.576-1.985-6.947-2.478c-1.254-0.262-2.519-0.575-3.787-0.753c-1.789-0.251-3.644,0.135-5.435,0.228
			c-0.936,0.049-1.881,0.098-2.784,0.364c-0.925,0.271-1.748,0.793-2.556,1.308c-0.666,0.425-1.547,0.891-1.791,1.702
			c-0.104,0.348,0.004,0.796,0.017,1.153c0.014,0.488,0.049,1.047,0.344,1.46c0.352,0.496,0.617,0.919,1.096,1.289
			c0.576,0.446,0.945,1.133,1.414,1.684c0.396,0.467,0.832,0.891,1.232,1.338c0.633,0.705,1.412,1.318,2.168,1.897
			c0.949,0.729,1.83,1.501,2.805,2.185c1.168,0.82,2.334,1.701,3.433,2.615c1.09,0.906,2.014,1.986,2.989,3.01
			c0.929,0.972,2.074,1.467,3.355,1.824c0.74,0.206,1.494,0.217,2.258,0.215"/>
		<path fill="none" stroke="#000000" stroke-width="3" stroke-miterlimit="10" d="M202.094,131.238
			c0.674,0.467,1.535,0.717,2.281,1.047c0.791,0.348,1.592,0.686,2.447,0.83c1.362,0.229,2.799,0.22,4.174,0.137
			c1.539-0.094,3.092-0.298,4.522-0.897c0.945-0.396,1.929-0.951,2.722-1.605c0.41-0.337,0.807-0.691,1.207-1.039
			c0.514-0.449,1.096-0.805,1.489-1.377"/>
		<path fill="none" stroke="#000000" stroke-width="3" stroke-miterlimit="10" d="M205.094,120.862
			c0.611,1.33,2.394,4.327,4.125,4.125"/>
		<path fill="none" stroke="#000000" stroke-width="3" stroke-miterlimit="10" d="M197.594,133.738c-0.018,2.09,0.854,3.92,2.625,5"
			/>
		<path fill="none" stroke="#000000" stroke-width="3" stroke-miterlimit="10" d="M203.469,134.613
			c0.017,2.874,0.426,5.05,2.75,6.625"/>
		<path fill="none" stroke="#000000" stroke-width="3" stroke-miterlimit="10" d="M210.562,141.738
			c-0.51-0.621-0.78-1.387-1.004-2.148c-0.225-0.768-0.555-1.567-0.639-2.362c-0.041-0.388-0.006-0.774-0.033-1.161
			c-0.028-0.38-0.194-0.76-0.168-1.141"/>
		<path fill="none" stroke="#000000" stroke-width="3" stroke-miterlimit="10" d="M214.062,134.925c0,1.556,0.427,3.078,1.005,4.509
			c0.498,1.225,0.539,2.584,1.526,3.555"/>
		<path fill="none" stroke="#000000" stroke-width="3" stroke-miterlimit="10" d="M219.469,133.738
			c0.131,0.949,0.691,1.795,1.033,2.676c0.381,0.98,0.654,2,0.859,3.03c0.246,1.236,0.532,2.505,1.172,3.606
			c0.414,0.712,1.065,1.28,1.217,2.124"/>
		<path fill="none" stroke="#000000" stroke-width="3" stroke-miterlimit="10" d="M221.469,169.738
			c-1.242,3.041-2.567,6.061-3.467,9.227c-0.406,1.433-0.973,2.728-1.508,4.107c-0.603,1.555-0.439,2.916-0.4,4.541"/>
		<path fill="none" stroke="#000000" stroke-width="3" stroke-miterlimit="10" d="M209.344,169.27
			c-0.358,0.614-0.742,1.188-1.08,1.816c-0.53,0.994-0.836,2.093-1.371,3.079c-0.407,0.749-0.914,1.721-0.829,2.604"/>
		<path fill="none" stroke="#000000" stroke-width="3" stroke-miterlimit="10" d="M238.22,86.237
			c-4.947,0.873-8.96,1.481-12.753,5.086c-1.836,1.744-3.379,3.808-4.604,6.02c-0.623,1.121-1.164,2.287-1.599,3.493
			c-0.397,1.104-0.916,2.155-1.313,3.257c-0.258,0.709-0.271,1.471-0.439,2.188"/>
		<path fill="none" stroke="#000000" stroke-width="3" stroke-miterlimit="10" d="M217.094,110.862
			c-0.459,1.848-1.223,3.56-1.522,5.459c-0.316,1.998-0.334,4.024-0.228,6.041"/>
		<path fill="none" stroke="#000000" stroke-width="3" stroke-miterlimit="10" d="M224.344,185.822
			c1.359-1.344,3.492-2.404,5.392-2.609c1.627-0.174,3.27-0.059,4.899-0.059"/>
		<path fill="none" stroke="#000000" stroke-width="3" stroke-miterlimit="10" d="M235.219,164.03c0,3.488-0.106,6.954,0.092,10.44
			c0.115,2.026,0.283,4.026,0.283,6.059"/>
		<path fill="none" stroke="#000000" stroke-width="3" stroke-miterlimit="10" d="M223.562,100.425
			c0.07-0.123,0.097-0.28,0.14-0.415c0.053-0.165,0.143-0.304,0.246-0.445c0.178-0.242,0.319-0.56,0.612-0.693
			c0.136-0.063,0.322-0.076,0.468-0.121c0.084-0.026,0.127-0.041,0.225-0.043c0.299-0.006,0.553,0.063,0.799,0.232
			c0.41,0.282,0.726,0.882,0.601,1.384c-0.068,0.273-0.375,0.529-0.629,0.622c-0.337,0.123-0.668-0.041-1.007-0.021"/>
		<path fill="none" stroke="#000000" stroke-width="3" stroke-miterlimit="10" d="M232.359,95.284
			c0.276-0.283,0.555-0.648,0.959-0.756c0.328-0.087,0.67-0.072,1.006-0.072c0.274,0,0.651-0.072,0.914,0.008
			c0.149,0.047,0.266,0.193,0.379,0.298c0.207,0.194,0.459,0.356,0.647,0.569c0.229,0.258,0.179,0.823-0.137,1.008
			c-0.521,0.304-1.152,0.289-1.738,0.289"/>
		<path fill="none" stroke="#000000" stroke-width="3" stroke-miterlimit="10" d="M239.742,209.363
			c2.328,0.271,3.381-1.002,4.699-2.521c2.217-2.557,5.366-4.065,7.491-6.723c2.382-2.978,3.791-6.588,5.927-9.729
			c1.146-1.684,2.307-3.391,3.633-4.938c2.554-2.979,5.271-5.734,7.74-8.838c2.684-3.373,5.396-6.758,7.53-10.517
			c1.32-2.321,1.938-5.325,1.662-7.993c-0.235-2.293-2.498-4.095-3.135-6.423c-0.686-2.516-0.672-5.89,0.082-8.366
			c0.805-2.642,1.736-5.476,2.16-8.175c0.094-0.592,0.086-1.131,0.027-1.739c-0.01-0.109-0.135-1.036-0.182-1.135
			c-0.49-1.009-1.683-1.546-2.513-2.236c-1.067-0.889-1.987-1.933-2.83-3.033c-2.985-3.916-5.104-8.135-8.955-11.331
			c-1.024-0.851-2.131-1.504-3.11-2.455c-0.549-0.531-1.229-1.212-1.783-1.638c-0.58-0.445-0.807-0.827-1.316-1.29
			c-1.922-1.739-3.764-3.805-5.916-5.258c-2.262-1.526-5.229-2.185-7.674-3.431c-4.051-2.065-8.631-5.627-13.414-5.231"/>
		<path fill="none" stroke="#000000" stroke-width="3" stroke-miterlimit="10" d="M245.617,102.987
			c-2.267,4.732-1.711,10.444-1.771,15.531c-0.061,5.26,0.111,10.516,0.22,15.773c0.172,8.391-0.429,16.875,0.522,25.229
			c0.555,4.864,0.621,9.79,1.742,14.575c0.332,1.419,0.711,2.827,0.986,4.259c0.27,1.405,0.469,2.823,0.619,4.248
			c0.104,1.006,0.381,2.266-0.014,3.241c-1.353,3.357-5.199,2.966-7.912,4.402c-1.191,0.631-2.505,0.924-3.771,1.365"/>
		<path fill="none" stroke="#000000" stroke-width="3" stroke-miterlimit="10" d="M245.523,154.425
			c0.03-0.85,0.766-1.735,1.116-2.494c0.4-0.87,0.824-1.737,1.369-2.528c0.885-1.282,2.092-2.492,3.388-3.361
			c2.034-1.367,4.575-1.985,6.946-2.478c1.254-0.262,2.519-0.575,3.787-0.753c1.789-0.251,3.644,0.135,5.435,0.228
			c0.936,0.049,1.881,0.098,2.784,0.364c0.925,0.271,1.748,0.793,2.556,1.308c0.666,0.425,1.547,0.891,1.791,1.702
			c0.104,0.348-0.004,0.796-0.017,1.153c-0.014,0.488-0.049,1.047-0.344,1.46c-0.352,0.496-0.617,0.919-1.096,1.289
			c-0.576,0.446-0.945,1.133-1.414,1.684c-0.396,0.467-0.832,0.891-1.232,1.338c-0.633,0.705-1.412,1.318-2.168,1.897
			c-0.949,0.729-1.83,1.501-2.805,2.185c-1.168,0.82-2.334,1.701-3.432,2.615c-1.09,0.906-2.014,1.986-2.99,3.01
			c-0.928,0.972-2.074,1.467-3.355,1.824c-0.74,0.206-1.494,0.217-2.258,0.215"/>
		<path fill="none" stroke="#000000" stroke-width="3" stroke-miterlimit="10" d="M268.242,131.238
			c-0.674,0.467-1.535,0.717-2.28,1.047c-0.791,0.348-1.593,0.686-2.447,0.83c-1.363,0.229-2.799,0.22-4.174,0.137
			c-1.539-0.094-3.093-0.298-4.523-0.897c-0.945-0.396-1.928-0.951-2.721-1.605c-0.41-0.337-0.808-0.691-1.207-1.039
			c-0.514-0.449-1.096-0.805-1.49-1.377"/>
		<path fill="none" stroke="#000000" stroke-width="3" stroke-miterlimit="10" d="M265.242,120.862
			c-0.61,1.33-2.394,4.327-4.125,4.125"/>
		<path fill="none" stroke="#000000" stroke-width="3" stroke-miterlimit="10" d="M272.742,133.738c0.019,2.09-0.854,3.92-2.625,5"
			/>
		<path fill="none" stroke="#000000" stroke-width="3" stroke-miterlimit="10" d="M266.867,134.613
			c-0.017,2.874-0.426,5.05-2.75,6.625"/>
		<path fill="none" stroke="#000000" stroke-width="3" stroke-miterlimit="10" d="M259.773,141.738
			c0.51-0.621,0.78-1.387,1.004-2.148c0.226-0.768,0.555-1.567,0.639-2.362c0.041-0.388,0.007-0.774,0.033-1.161
			c0.028-0.38,0.194-0.76,0.168-1.141"/>
		<path fill="none" stroke="#000000" stroke-width="3" stroke-miterlimit="10" d="M256.273,134.925c0,1.556-0.427,3.078-1.005,4.509
			c-0.497,1.225-0.538,2.584-1.526,3.555"/>
		<path fill="none" stroke="#000000" stroke-width="3" stroke-miterlimit="10" d="M250.867,133.738
			c-0.131,0.949-0.69,1.795-1.032,2.676c-0.382,0.98-0.654,2-0.859,3.03c-0.246,1.236-0.533,2.505-1.172,3.606
			c-0.414,0.712-1.066,1.28-1.217,2.124"/>
		<path fill="none" stroke="#000000" stroke-width="3" stroke-miterlimit="10" d="M248.867,169.738
			c1.242,3.041,2.567,6.061,3.468,9.227c0.405,1.433,0.973,2.728,1.508,4.107c0.602,1.555,0.438,2.916,0.399,4.541"/>
		<path fill="none" stroke="#000000" stroke-width="3" stroke-miterlimit="10" d="M260.992,169.27
			c0.358,0.614,0.742,1.188,1.08,1.816c0.53,0.994,0.836,2.093,1.371,3.079c0.407,0.749,0.914,1.721,0.83,2.604"/>
		<path fill="none" stroke="#000000" stroke-width="3" stroke-miterlimit="10" d="M232.117,86.237
			c4.947,0.873,8.959,1.481,12.752,5.086c1.836,1.744,3.379,3.808,4.604,6.02c0.623,1.121,1.164,2.287,1.599,3.493
			c0.397,1.104,0.916,2.155,1.313,3.257c0.258,0.709,0.271,1.471,0.439,2.188"/>
		<path fill="none" stroke="#000000" stroke-width="3" stroke-miterlimit="10" d="M253.242,110.862
			c0.459,1.848,1.224,3.56,1.522,5.459c0.316,1.998,0.334,4.024,0.228,6.041"/>
		<path fill="none" stroke="#000000" stroke-width="3" stroke-miterlimit="10" d="M245.992,185.822
			c-1.358-1.344-3.492-2.404-5.392-2.609c-1.627-0.174-3.27-0.059-4.899-0.059"/>
		<path fill="none" stroke="#000000" stroke-width="3" stroke-miterlimit="10" d="M235.117,164.03c0,3.488,0.106,6.954-0.092,10.44
			c-0.115,2.026-0.283,4.026-0.283,6.059"/>
		<path fill="none" stroke="#000000" stroke-width="3" stroke-miterlimit="10" d="M246.773,100.425
			c-0.07-0.123-0.097-0.28-0.14-0.415c-0.053-0.165-0.143-0.304-0.246-0.445c-0.178-0.242-0.319-0.56-0.612-0.693
			c-0.136-0.063-0.322-0.076-0.468-0.121c-0.084-0.026-0.127-0.041-0.225-0.043c-0.299-0.006-0.553,0.063-0.799,0.232
			c-0.41,0.282-0.725,0.882-0.6,1.384c0.068,0.273,0.375,0.529,0.629,0.622c0.336,0.123,0.668-0.041,1.006-0.021"/>
		<path fill="none" stroke="#000000" stroke-width="3" stroke-miterlimit="10" d="M237.976,95.284
			c-0.276-0.283-0.555-0.648-0.959-0.756c-0.327-0.087-0.67-0.072-1.006-0.072c-0.274,0-0.651-0.072-0.914,0.008
			c-0.149,0.047-0.266,0.193-0.379,0.298c-0.207,0.194-0.459,0.356-0.647,0.569c-0.229,0.258-0.179,0.823,0.137,1.008
			c0.521,0.304,1.152,0.289,1.738,0.289"/>
		<path fill="none" stroke="#000000" stroke-width="3" stroke-miterlimit="10" d="M212.396,189.948
			c-0.019,0.537,0.25,1.297,0.377,1.863c0.231,1.035,0.801,1.837,1.106,2.822c0.178,0.562,0.334,0.978,0.543,1.482
			c0.443,1.078,0.5,2.075,0.607,3.211c0.299,3.157,0.645,6.608-0.605,9.609c-0.975,2.347-2.637,4.425-4.238,6.371
			c-1.678,2.038-3.521,3.888-5.692,5.398c-2.129,1.482-4.355,2.79-6.383,4.42c-1.535,1.235-2.828,2.75-4.414,3.925
			c-1.521,1.126-3.324,1.734-4.963,2.657c-1.621,0.914-3.261,1.789-4.886,2.695c-2.057,1.147-3.83,2.745-5.896,3.889
			c-1.734,0.96-3.604,1.889-5.24,3.008c-1.5,1.027-2.488,2.621-3.975,3.696c-1.099,0.794-2.058,1.749-3.111,2.598
			c-1.045,0.844-2.26,1.463-3.258,2.368c-0.939,0.854-1.451,1.951-1.879,3.125c-0.658,1.797-1.222,3.672-1.279,5.599
			c-0.037,1.229-0.059,2.784,0.625,3.857c0.82,1.289,2.402,1.122,3.678,1.576c2.736,0.976,5.043,0.267,7.679-0.658
			c1.188-0.417,2.053-0.305,3.313-0.371c1.012-0.053,2.037-0.322,3.06-0.431c1.024-0.109,2.069-0.059,3.1-0.117
			c2.336-0.129,4.676-0.409,7.014-0.19c2.726,0.252,5.365,0.97,7.904,1.971c4.453,1.756,9.678,4.196,11.566,8.929
			c1.997,5.013,0.852,10.089,0.28,15.224c-0.059,0.015-0.114,0.026-0.172,0.04"/>
		<path fill="none" stroke="#000000" stroke-width="3" stroke-miterlimit="10" d="M161.467,270.249
			c0.019,1.088,0.104,2.305,0.625,3.27c0.217,0.398,0.662,0.703,0.892,1.074c0.276,0.45,0.438,0.952,0.743,1.396
			c0.791,1.157,1.906,1.901,2.617,3.12c0.879,1.503,2.479,2.6,3.674,3.834c1.32,1.365,2.658,2.399,4.339,3.287
			c0.952,0.504,1.592,1.241,2.475,1.849c1.381,0.947,2.645,1.711,3.844,2.919c1.144,1.15,2.592,1.896,3.701,3.014
			c0.602,0.607,1.146,1.299,1.688,1.96c0.68,0.831,1.504,1.52,2.092,2.401c0.84,1.26,1.672,2.526,2.578,3.732
			c0.879,1.17,2.118,1.907,3.047,3.021c0.555,0.668,1.092,1.105,1.516,1.855c0.281,0.502,0.666,0.73,1.006,1.146
			c0.347,0.423,0.531,1.043,0.847,1.504c0.883,1.296,1.629,3.015,3.032,3.838c0.769,0.45,1.291,0.365,2.078,0.161
			c0.916-0.237,1.871-0.164,2.777-0.479c0.74-0.258,1.43-0.462,2.205-0.607c1.543-0.289,3.285-0.915,4.313-2.089
			c0.328-0.374,0.572-0.655,0.955-0.974c0.479-0.402,0.904-0.591,1.351-0.944c0.619-0.491,0.711-1.396,0.801-2.116
			c0.604-4.958-1.961-8.998-4.236-13.188c-0.924-1.703-2.082-3.41-3.451-4.791c-1.295-1.309-2.854-2.352-4.006-3.8
			c-1.299-1.637-2.518-3.319-3.873-4.917c-1.899-2.236-3.842-4.44-5.5-6.867c-1.114-1.63-1.733-3.433-2.711-5.118
			c-1.281-2.212-3.508-3.668-5.869-4.511c-2.897-1.032-5.518-0.704-8.502-0.382c-2.065,0.224-4.127,0.396-6.182,0.726
			c-2.17,0.346-4.422,0.721-6.551,1.249C161.066,265.496,161.433,268.078,161.467,270.249z"/>
		<path fill="none" stroke="#000000" stroke-width="3" stroke-miterlimit="10" d="M202.115,287.282
			c0.028,0.697-0.668,1.146-1.025,1.669c-0.42,0.612-0.715,1.265-1.184,1.846c-1.48,1.843-2.361,3.914-4.179,5.54
			c-0.571,0.514-1.127,1.016-1.698,1.543c-0.289,0.267-0.703,0.771-1.101,0.918"/>
		<path fill="none" stroke="#000000" stroke-width="3" stroke-miterlimit="10" d="M206.226,291.395
			c-0.754,1.603-1.87,3.064-2.823,4.462c-0.474,0.689-1.063,1.153-1.509,1.877c-0.385,0.621-0.823,1.252-1.233,1.899
			c-0.652,1.029-1.381,1.816-2.15,2.735c-0.381,0.452-0.836,0.851-1.264,1.314c-0.33,0.357-0.625,1.163-1.094,1.282"/>
		<path fill="none" stroke="#000000" stroke-width="3" stroke-miterlimit="10" d="M178.261,272.82
			c-0.729,0.136-1.268,1.083-1.131,1.682c0.242,1.058,2.256,1.091,3.162,0.86c0.713-0.183,1.611-1.23,1.803-1.918
			c0.332-1.2-0.701-0.967-1.641-0.967"/>
		<path fill="none" stroke="#000000" stroke-width="3" stroke-miterlimit="10" d="M173.599,241.358
			c1.082,1.45,1.701,3.228,2.638,4.761c0.612,1.006,1.084,1.909,1.506,3.015c0.66,1.733,1.016,3.461,1.819,5.11"/>
		<path fill="none" stroke="#000000" stroke-width="3" stroke-miterlimit="10" d="M181.14,251.708
			c1.308-0.026,2.402,0.818,2.271,2.246c-0.164,1.74-2.523,0.318-3.299,1.387"/>
		<path fill="none" stroke="#000000" stroke-width="3" stroke-miterlimit="10" d="M187.926,234.229
			c-0.008,1.982,0.625,4.008,1.135,5.908c0.548,2.027,1.193,4.04,2.142,5.92c1.379,2.74,3.049,5.319,4.52,8.012
			c1.074,1.964,1.027,4.646,1.455,6.823c0.176,0.896,0.371,2.188,0.277,3.086"/>
		<path fill="none" stroke="#000000" stroke-width="3" stroke-miterlimit="10" d="M202.937,223.741
			c-0.018,1.18,0.728,2.339,1.068,3.445c0.381,1.235,0.642,2.508,1.064,3.731c0.606,1.753,1.198,3.445,1.631,5.256
			c0.412,1.729,0.854,3.453,1.178,5.201c0.32,1.73,0.891,3.056,1.607,4.638c0.752,1.66,0.899,3.519,1.239,5.286
			c0.375,1.959,0.726,3.932,1.259,5.854c0.563,2.037,1.243,3.974,1.557,6.063c0.303,2.031,0.52,4.073,0.736,6.115
			c0.18,1.693,0.487,3.596-0.613,5.062c-0.703,0.936-1.209,1.804-1.555,2.932c-0.466,1.518-1.509,2.747-2.111,4.199"/>
		<path fill="none" stroke="#000000" stroke-width="3" stroke-miterlimit="10" d="M204.445,222.987
			c1.008-0.119,2.282,0.951,3.061,1.457c1.058,0.687,2.08,1.306,2.963,2.229c1.164,1.221,2.291,2.471,3.453,3.707
			c1.236,1.316,2.691,2.279,4.08,3.397c1.633,1.313,3.121,2.914,4.598,4.396c2.125,2.137,4.289,4.46,6.031,6.971
			c0.658,0.947,1.357,1.582,2.185,2.354c0.465,0.436,0.86,0.588,1.342,0.96c0.447,0.347,0.713,0.841,1.215,1.192"/>
		<path fill="none" stroke="#000000" stroke-width="3" stroke-miterlimit="10" d="M214.863,212.157
			c0.354,0.439,1.145,0.821,1.61,1.168c0.681,0.503,1.392,0.965,2.101,1.424c2.127,1.373,3.914,2.922,5.854,4.514
			c0.818,0.673,1.683,1.276,2.455,1.996c0.851,0.792,1.896,1.245,2.648,2.004c0.602,0.607,1.225,1.23,1.686,1.983
			c0.293,0.477,1.291,1.344,1.265,1.854"/>
		<path fill="none" stroke="#000000" stroke-width="3" stroke-miterlimit="10" d="M235.222,249.857
			c-2.129,0.566-3.938,1.502-4.756,3.688c-0.485,1.307-0.479,2.797,0.678,3.746c0.888,0.729,4.347,2.708,5.175,0.996"/>
		<path fill="none" stroke="#000000" stroke-width="3" stroke-miterlimit="10" d="M199.029,312.027
			c-2.908,2.446-3.447,6.274-3.063,9.874c0.291,2.712,0.906,5.525,3.109,7.329c1.004,0.819,2.121,1.493,3.266,2.096
			c0.871,0.457,1.867,1.182,2.808,1.443c0.729,0.203,1.438,0.008,2.176,0.026"/>
		<path fill="none" stroke="#000000" stroke-width="3" stroke-miterlimit="10" d="M233.508,300.717
			c-0.369,0.771-1.369,1.247-2.012,1.769c-1.438,1.166-2.66,2.542-3.9,3.908c-1.123,1.232-2.428,2.181-3.813,3.098
			c-2.885,1.907-5.734,3.72-8.418,5.913c-1.869,1.53-3.771,3.155-5.726,4.566c-0.432,0.313-0.969,0.479-1.385,0.809
			c-0.34,0.271-0.483,0.632-0.785,0.927c-0.772,0.76-1.885,0.97-2.545,1.905"/>
		<path fill="none" stroke="#000000" stroke-width="3" stroke-miterlimit="10" d="M228.162,296.81
			c1.363,0.057,2.744-0.139,4.115-0.139c0.914,0,1.983,0.136,2.809-0.272"/>
		<path fill="none" stroke="#000000" stroke-width="3" stroke-miterlimit="10" d="M228.299,291.874
			c0.293,1.415,0.756,2.507,0.754,3.977"/>
		<path fill="none" stroke="#000000" stroke-width="3" stroke-miterlimit="10" d="M233.097,291.874c0,1.259-0.373,3.281,0.138,4.456
			"/>
		<path fill="none" stroke="#000000" stroke-width="3" stroke-miterlimit="10" d="M233.097,314.357
			c-2.006,1.071-3.821,2.438-5.797,3.573c-2.186,1.261-4.35,2.743-6.344,4.292c-1.24,0.964-2.508,2.015-4.037,2.621"/>
		<path fill="none" stroke="#000000" stroke-width="3" stroke-miterlimit="10" d="M213.355,325.803
			c0.381,0.114,1.104,0.924,1.434,1.214c1.047,0.928,1.91,1.962,3.029,2.833c1.192,0.928,2.475,1.664,3.69,2.555
			c2.035,1.485,4.117,2.45,6.652,2.447"/>
		<path fill="none" stroke="#000000" stroke-width="3" stroke-miterlimit="10" d="M205.199,329.094
			c1.332,0.676,2.619,1.758,3.721,2.752c0.904,0.82,1.969,1.607,2.717,2.578c0.633,0.822,1.004,1.496,1.855,2.143"/>
		<path fill="none" stroke="#000000" stroke-width="3" stroke-miterlimit="10" d="M201.847,330.781
			c-1.211-0.201-2.662,1.518-3.453,2.177c-0.938,0.783-1.938,1.579-2.811,2.411c-1.301,1.244-1.92,3.112-3.301,4.229
			c-1.228,0.992-2.885,1.799-3.619,3.286c-0.156,0.317-0.172,0.675-0.33,1.018c-0.641,1.399-1.65,2.47-2.74,3.483
			c-0.332,0.31-0.354,0.606-0.537,0.967c-0.19,0.38-0.526,0.708-0.748,1.082c-0.475,0.799-0.346,1.64-0.346,2.575
			c0,1.357,0.205,2.565,0.855,3.707c0.309,0.538,0.563,0.787,0.83,1.372c0.303,0.669,0.565,1.366,0.637,2.168
			c0.141,1.619,0.098,3.446-0.146,5.045c-0.371,2.443-0.116,4.973-0.305,7.452c-0.146,1.921-0.127,3.906-0.127,5.865
			c0,0.743-0.088,1.547,0.002,2.286c0.082,0.681,0.381,1.321,0.48,2.006c0.186,1.283,0.358,2.621,0.831,3.822
			c0.281,0.717,0.308,1.483,0.705,2.146c0.451,0.75,0.617,1.593,0.918,2.416c0.627,1.714,0.216,3.813,1.623,5.232
			c0.418,0.422,1.25,1.028,1.75,1.313c0.877,0.5,1.898,0.176,2.813,0.046c0.504-0.071,1.02-0.014,1.527-0.122
			c0.663-0.14,1.235-0.562,1.838-0.877c0.727-0.381,1.328-1.083,1.881-1.716c0.834-0.954,1.334-2.27,1.961-3.38
			c0.889-1.569,0.815-3.472,1.119-5.215c0.364-2.086-0.17-4.601,0.912-6.544c0.237-0.429,0.483-0.774,0.686-1.232
			c0.185-0.42,0.123-0.888,0.269-1.25c0.098-0.241,0.489-0.593,0.661-0.843c0.365-0.526,0.775-1.009,1.398-1.242
			c0.619-0.231,0.486-0.182,0.938,0.303c0.496,0.534,1.138,0.922,1.621,1.465c0.57,0.641,0.826,1.521,1.291,2.244
			c0.545,0.847,0.849,1.776,1.297,2.66c0.457,0.898,1.052,1.535,1.484,2.436c0.447,0.933,0.832,1.794,1.344,2.683
			c0.275,0.482,0.32,0.997,0.371,1.543c0.072,0.791,0.232,1.437,0.57,2.164c0.525,1.134,0.619,2.25,0.877,3.486
			c0.221,1.061,0.617,2.042,0.777,3.098c0.225,1.496,0.815,2.859,1.063,4.328c0.264,1.568-0.885,4.616,1.658,4.654
			c0.906,0.013,1.77-0.251,2.688-0.251c0.787,0,1.658-0.106,2.441,0c0.6,0.082,1.086,0.431,1.717,0.486
			c0.597,0.056,1.304,0.044,1.896-0.005c0.178-0.015,0.27-0.003,0.434-0.061"/>
		<path fill="none" stroke="#000000" stroke-width="3" stroke-miterlimit="10" d="M229.431,384.679
			c-1.004,0.606-1.475,1.615-2.139,2.515c-0.629,0.854-1.715,1.33-2.479,2.033c-0.479,0.438-1.119,0.883-1.613,1.214
			c-0.445,0.3-0.813,0.687-1.316,0.971c-1.418,0.801-2.729,2.248-4.197,2.724"/>
		<path fill="none" stroke="#000000" stroke-width="3" stroke-miterlimit="10" d="M227.322,380.042
			c-2.049,1.74-4.527,3.069-6.793,4.504c-1.035,0.656-2.072,1.406-3.104,2.028c-0.399,0.24-0.865,0.461-1.256,0.729
			c-0.354,0.245-0.611,0.627-1.072,0.688"/>
		<path fill="none" stroke="#000000" stroke-width="3" stroke-miterlimit="10" d="M227.685,371.792
			c-0.11,0.291-0.301,0.324-0.541,0.534c-0.702,0.615-1.317,1.246-2.069,1.818c-0.992,0.754-1.871,1.729-2.947,2.364
			c-1.395,0.824-2.805,1.741-4.168,2.478c-0.643,0.346-1.373,0.56-2.023,0.892c-0.432,0.22-0.707,0.571-1.092,0.824
			c-0.701,0.461-1.668,0.747-2.336,1.087"/>
		<path fill="none" stroke="#000000" stroke-width="3" stroke-miterlimit="10" d="M189.623,345.535c0.76,0.129,1.451,1.407,1.9,1.95
			c0.416,0.501,0.946,0.939,1.459,1.31c0.938,0.678,2.182,1.169,3.252,1.436c1.7,0.422,3.455,0.563,5.186,0.902
			c0.898,0.178,1.568,0.494,2.428,0.854c0.939,0.393,1.986,0.425,2.939,0.771c0.836,0.307,1.436,0.841,2.332,1.085
			c0.449,0.123,0.914,0.165,1.342,0.33c0.662,0.257,1.146,0.792,1.904,0.912c0.504,0.079,0.649,0.076,1.067,0.258
			c0.556,0.242,1.08,0.638,1.646,0.849c0.471,0.175,1.002,0.179,1.469,0.361c0.543,0.214,1.062,0.525,1.637,0.688
			c2.207,0.626,4.855,0.397,7.111,0.397c1.979,0,4.039,0.095,6.002-0.061"/>
		<path fill="none" stroke="#000000" stroke-width="3" stroke-miterlimit="10" d="M230.273,360.169
			c-0.015,1.745-0.421,3.443-0.423,5.203c0,3.561,0.58,7.091,0.464,10.656c-0.099,2.912-0.041,5.833-0.041,8.747
			c0,4.564,0,9.13,0,13.693"/>
		<path fill="none" stroke="#000000" stroke-width="3" stroke-miterlimit="10" d="M231.478,355.653
			c-0.313-1.038-0.516-2.092-0.633-3.175c-0.1-0.905-0.146-1.817-0.237-2.724c-0.068-0.659-0.343-1.18-0.453-1.811"/>
		<path fill="none" stroke="#000000" stroke-width="3" stroke-miterlimit="10" d="M200.824,344.872
			c0.938-0.147,2.061-1.15,2.854-1.644c0.847-0.526,1.854-1.195,2.816-1.466c1.02-0.285,2.104-0.602,3.146-0.777
			c1.429-0.243,2.9,0.047,4.341-0.127c1.352-0.163,2.573,0.206,3.94,0.489c1.076,0.225,1.902,1.198,2.697,1.939
			c0.709,0.66,1.545,1.255,2.356,1.777c1.011,0.65,1.48,1.568,2.767,1.611c0.479,0.018,0.916,0.004,1.377,0.089
			c0.492,0.092,0.959,0.317,1.469,0.274"/>
		<path fill="none" stroke="#000000" stroke-width="3" stroke-miterlimit="10" d="M188.42,357.218
			c0.023-0.507,0.787-1.706,1.258-2.019c0.394-0.259,0.98-0.275,1.416-0.364c0.689-0.138,1.47-0.678,2.144-0.688"/>
		<path fill="none" stroke="#000000" stroke-width="3" stroke-miterlimit="10" d="M187.033,375.285
			c0.537-0.178,1.098-0.254,1.647-0.425c0.865-0.269,1.771-0.441,2.627-0.737c0.25-0.087,0.804-0.429,1.113-0.479
			c0.631-0.104,2.615,0.294,2.32-0.947"/>
		<path fill="none" stroke="#000000" stroke-width="3" stroke-miterlimit="10" d="M195.404,359.025
			c-0.004,1.206-0.002,2.332-0.263,3.52c-0.315,1.451-0.354,3.344-1.303,4.551"/>
		<path fill="none" stroke="#000000" stroke-width="3" stroke-miterlimit="10" d="M202.029,366.855
			c1.25,1.191,1.942,2.909,3.145,4.046c0.318,0.301,0.515,0.753,0.812,1.096c0.291,0.338,0.729,0.592,1.018,0.938
			c0.973,1.18,1.766,2.813,3.578,2.833"/>
		<path fill="none" stroke="#000000" stroke-width="3" stroke-miterlimit="10" d="M258.871,189.948
			c0.017,0.537-0.25,1.297-0.377,1.863c-0.231,1.035-0.799,1.837-1.108,2.822c-0.176,0.562-0.332,0.978-0.541,1.482
			c-0.445,1.078-0.5,2.075-0.607,3.211c-0.301,3.157-0.645,6.608,0.604,9.609c0.979,2.347,2.64,4.425,4.24,6.371
			c1.678,2.038,3.521,3.888,5.693,5.398c2.129,1.482,4.354,2.79,6.381,4.42c1.537,1.235,2.83,2.75,4.416,3.925
			c1.521,1.126,3.324,1.734,4.961,2.657c1.621,0.914,3.262,1.789,4.887,2.695c2.057,1.147,3.832,2.745,5.896,3.889
			c1.734,0.96,3.605,1.889,5.24,3.008c1.5,1.027,2.488,2.621,3.975,3.696c1.096,0.794,2.057,1.749,3.111,2.598
			c1.045,0.844,2.26,1.463,3.258,2.368c0.938,0.854,1.451,1.951,1.881,3.125c0.656,1.797,1.219,3.672,1.277,5.599
			c0.036,1.229,0.059,2.784-0.625,3.857c-0.818,1.289-2.402,1.122-3.677,1.576c-2.737,0.976-5.046,0.267-7.68-0.658
			c-1.188-0.417-2.053-0.305-3.313-0.371c-1.01-0.053-2.037-0.322-3.058-0.431c-1.024-0.109-2.069-0.059-3.1-0.117
			c-2.337-0.129-4.675-0.409-7.017-0.19c-2.723,0.252-5.363,0.97-7.901,1.971c-4.453,1.756-9.679,4.196-11.564,8.929
			c-2,5.013-0.852,10.089-0.28,15.224c0.057,0.015,0.112,0.026,0.17,0.04"/>
		<path fill="none" stroke="#000000" stroke-width="3" stroke-miterlimit="10" d="M309.799,270.249
			c-0.016,1.088-0.1,2.305-0.625,3.27c-0.215,0.398-0.661,0.703-0.889,1.074c-0.277,0.45-0.438,0.952-0.742,1.396
			c-0.793,1.157-1.908,1.901-2.619,3.12c-0.878,1.503-2.479,2.6-3.674,3.834c-1.319,1.365-2.657,2.399-4.338,3.287
			c-0.953,0.504-1.592,1.241-2.478,1.849c-1.379,0.947-2.643,1.711-3.842,2.919c-1.143,1.15-2.592,1.896-3.701,3.014
			c-0.604,0.607-1.146,1.299-1.688,1.96c-0.678,0.831-1.504,1.52-2.092,2.401c-0.84,1.26-1.672,2.526-2.578,3.732
			c-0.879,1.17-2.121,1.907-3.047,3.021c-0.555,0.668-1.094,1.105-1.516,1.855c-0.281,0.502-0.664,0.73-1.006,1.146
			c-0.349,0.423-0.531,1.043-0.847,1.504c-0.883,1.296-1.629,3.015-3.032,3.838c-0.769,0.45-1.293,0.365-2.078,0.161
			c-0.916-0.237-1.871-0.164-2.777-0.479c-0.74-0.258-1.43-0.462-2.205-0.607c-1.543-0.289-3.285-0.915-4.314-2.089
			c-0.328-0.374-0.572-0.655-0.953-0.974c-0.479-0.402-0.906-0.591-1.352-0.944c-0.621-0.491-0.713-1.396-0.799-2.116
			c-0.605-4.958,1.961-8.998,4.234-13.188c0.924-1.703,2.084-3.41,3.451-4.791c1.295-1.309,2.854-2.352,4.006-3.8
			c1.299-1.637,2.518-3.319,3.873-4.917c1.899-2.236,3.842-4.44,5.5-6.867c1.114-1.63,1.733-3.433,2.713-5.118
			c1.278-2.212,3.504-3.668,5.869-4.511c2.895-1.032,5.516-0.704,8.498-0.382c2.067,0.224,4.129,0.396,6.184,0.726
			c2.17,0.346,4.422,0.721,6.551,1.249C310.201,265.496,309.834,268.078,309.799,270.249z"/>
		<path fill="none" stroke="#000000" stroke-width="3" stroke-miterlimit="10" d="M269.152,287.282
			c-0.029,0.697,0.668,1.146,1.024,1.669c0.42,0.612,0.715,1.265,1.185,1.846c1.479,1.843,2.36,3.914,4.178,5.54
			c0.572,0.514,1.127,1.016,1.699,1.543c0.289,0.267,0.703,0.771,1.101,0.918"/>
		<path fill="none" stroke="#000000" stroke-width="3" stroke-miterlimit="10" d="M265.041,291.395
			c0.753,1.603,1.871,3.064,2.826,4.462c0.472,0.689,1.06,1.153,1.506,1.877c0.386,0.621,0.824,1.252,1.234,1.899
			c0.651,1.029,1.383,1.816,2.151,2.735c0.379,0.452,0.834,0.851,1.263,1.314c0.329,0.357,0.625,1.163,1.096,1.282"/>
		<path fill="none" stroke="#000000" stroke-width="3" stroke-miterlimit="10" d="M293.007,272.82
			c0.729,0.136,1.268,1.083,1.131,1.682c-0.244,1.058-2.256,1.091-3.162,0.86c-0.713-0.183-1.611-1.23-1.803-1.918
			c-0.332-1.2,0.7-0.967,1.641-0.967"/>
		<path fill="none" stroke="#000000" stroke-width="3" stroke-miterlimit="10" d="M297.669,241.358
			c-1.082,1.45-1.701,3.228-2.638,4.761c-0.612,1.006-1.084,1.909-1.506,3.015c-0.66,1.733-1.017,3.461-1.822,5.11"/>
		<path fill="none" stroke="#000000" stroke-width="3" stroke-miterlimit="10" d="M290.128,251.708
			c-1.306-0.026-2.402,0.818-2.269,2.246c0.161,1.74,2.521,0.318,3.297,1.387"/>
		<path fill="none" stroke="#000000" stroke-width="3" stroke-miterlimit="10" d="M283.343,234.229
			c0.006,1.982-0.625,4.008-1.138,5.908c-0.543,2.027-1.192,4.04-2.139,5.92c-1.382,2.74-3.048,5.319-4.521,8.012
			c-1.074,1.964-1.027,4.646-1.455,6.823c-0.178,0.896-0.369,2.188-0.276,3.086"/>
		<path fill="none" stroke="#000000" stroke-width="3" stroke-miterlimit="10" d="M268.33,223.741
			c0.019,1.18-0.728,2.339-1.067,3.445c-0.381,1.235-0.642,2.508-1.064,3.731c-0.607,1.753-1.201,3.445-1.631,5.256
			c-0.412,1.729-0.855,3.453-1.178,5.201c-0.32,1.73-0.892,3.056-1.607,4.638c-0.752,1.66-0.902,3.519-1.24,5.286
			c-0.377,1.959-0.725,3.932-1.256,5.854c-0.566,2.037-1.246,3.974-1.557,6.063c-0.305,2.031-0.521,4.073-0.738,6.115
			c-0.18,1.693-0.488,3.596,0.611,5.062c0.705,0.936,1.211,1.804,1.557,2.932c0.467,1.518,1.508,2.747,2.111,4.199"/>
		<path fill="none" stroke="#000000" stroke-width="3" stroke-miterlimit="10" d="M266.822,222.987
			c-1.006-0.119-2.283,0.951-3.062,1.457c-1.057,0.687-2.08,1.306-2.961,2.229c-1.166,1.221-2.293,2.471-3.455,3.707
			c-1.235,1.316-2.69,2.279-4.08,3.397c-1.631,1.313-3.121,2.914-4.596,4.396c-2.125,2.137-4.289,4.46-6.033,6.971
			c-0.658,0.947-1.356,1.582-2.184,2.354c-0.465,0.436-0.859,0.588-1.342,0.96c-0.447,0.347-0.713,0.841-1.216,1.192"/>
		<path fill="none" stroke="#000000" stroke-width="3" stroke-miterlimit="10" d="M256.404,212.157
			c-0.354,0.439-1.146,0.821-1.61,1.168c-0.681,0.503-1.39,0.965-2.101,1.424c-2.127,1.373-3.914,2.922-5.854,4.514
			c-0.815,0.673-1.68,1.276-2.455,1.996c-0.848,0.792-1.895,1.245-2.646,2.004c-0.604,0.607-1.226,1.23-1.688,1.983
			c-0.293,0.477-1.289,1.344-1.264,1.854"/>
		<path fill="none" stroke="#000000" stroke-width="3" stroke-miterlimit="10" d="M236.047,249.857
			c2.128,0.566,3.938,1.502,4.755,3.688c0.485,1.307,0.479,2.797-0.679,3.746c-0.887,0.729-4.346,2.708-5.174,0.996"/>
		<path fill="none" stroke="#000000" stroke-width="3" stroke-miterlimit="10" d="M272.238,312.027
			c2.908,2.446,3.449,6.274,3.063,9.874c-0.291,2.712-0.906,5.525-3.109,7.329c-1.004,0.819-2.121,1.493-3.266,2.096
			c-0.869,0.457-1.867,1.182-2.808,1.443c-0.729,0.203-1.438,0.008-2.176,0.026"/>
		<path fill="none" stroke="#000000" stroke-width="3" stroke-miterlimit="10" d="M237.76,300.717
			c0.37,0.771,1.37,1.247,2.013,1.769c1.439,1.166,2.66,2.542,3.902,3.908c1.121,1.232,2.426,2.181,3.813,3.098
			c2.883,1.907,5.732,3.72,8.414,5.913c1.871,1.53,3.771,3.155,5.729,4.566c0.43,0.313,0.969,0.479,1.383,0.809
			c0.34,0.271,0.486,0.632,0.785,0.927c0.773,0.76,1.885,0.97,2.545,1.905"/>
		<path fill="none" stroke="#000000" stroke-width="3" stroke-miterlimit="10" d="M243.107,296.81
			c-1.365,0.057-2.746-0.139-4.117-0.139c-0.914,0-1.984,0.136-2.81-0.272"/>
		<path fill="none" stroke="#000000" stroke-width="3" stroke-miterlimit="10" d="M242.97,291.874
			c-0.291,1.415-0.756,2.507-0.754,3.977"/>
		<path fill="none" stroke="#000000" stroke-width="3" stroke-miterlimit="10" d="M238.173,291.874c0,1.259,0.371,3.281-0.14,4.456"
			/>
		<path fill="none" stroke="#000000" stroke-width="3" stroke-miterlimit="10" d="M238.173,314.357
			c2.004,1.071,3.821,2.438,5.795,3.573c2.186,1.261,4.35,2.743,6.344,4.292c1.24,0.964,2.51,2.015,4.037,2.621"/>
		<path fill="none" stroke="#000000" stroke-width="3" stroke-miterlimit="10" d="M257.912,325.803
			c-0.381,0.114-1.104,0.924-1.435,1.214c-1.049,0.928-1.909,1.962-3.028,2.833c-1.192,0.928-2.476,1.664-3.69,2.555
			c-2.035,1.485-4.115,2.45-6.65,2.447"/>
		<path fill="none" stroke="#000000" stroke-width="3" stroke-miterlimit="10" d="M266.068,329.094
			c-1.332,0.676-2.619,1.758-3.72,2.752c-0.905,0.82-1.971,1.607-2.719,2.578c-0.633,0.822-1.004,1.496-1.856,2.143"/>
		<path fill="none" stroke="#000000" stroke-width="3" stroke-miterlimit="10" d="M269.421,330.781
			c1.211-0.201,2.661,1.518,3.452,2.177c0.938,0.783,1.938,1.579,2.812,2.411c1.301,1.244,1.92,3.112,3.301,4.229
			c1.227,0.992,2.885,1.799,3.619,3.286c0.156,0.317,0.172,0.675,0.33,1.018c0.641,1.399,1.649,2.47,2.74,3.483
			c0.332,0.31,0.356,0.606,0.536,0.967c0.193,0.38,0.527,0.708,0.748,1.082c0.476,0.799,0.347,1.64,0.347,2.575
			c0,1.357-0.205,2.565-0.855,3.707c-0.309,0.538-0.564,0.787-0.83,1.372c-0.303,0.669-0.566,1.366-0.635,2.168
			c-0.145,1.619-0.1,3.446,0.143,5.045c0.371,2.443,0.117,4.973,0.305,7.452c0.146,1.921,0.127,3.906,0.127,5.865
			c0,0.743,0.089,1.547-0.002,2.286c-0.082,0.681-0.381,1.321-0.479,2.006c-0.187,1.283-0.358,2.621-0.832,3.822
			c-0.282,0.717-0.308,1.483-0.705,2.146c-0.45,0.75-0.616,1.593-0.918,2.416c-0.627,1.714-0.215,3.813-1.623,5.232
			c-0.418,0.422-1.25,1.028-1.75,1.313c-0.877,0.5-1.897,0.176-2.813,0.046c-0.504-0.071-1.02-0.014-1.526-0.122
			c-0.664-0.14-1.235-0.562-1.836-0.877c-0.729-0.381-1.33-1.083-1.883-1.716c-0.834-0.954-1.334-2.27-1.964-3.38
			c-0.887-1.569-0.813-3.472-1.118-5.215c-0.361-2.086,0.172-4.601-0.91-6.544c-0.238-0.429-0.483-0.774-0.685-1.232
			c-0.186-0.42-0.125-0.888-0.27-1.25c-0.098-0.241-0.49-0.593-0.662-0.843c-0.365-0.526-0.775-1.009-1.398-1.242
			c-0.618-0.231-0.485-0.182-0.936,0.303c-0.5,0.534-1.137,0.922-1.623,1.465c-0.57,0.641-0.824,1.521-1.291,2.244
			c-0.545,0.847-0.848,1.776-1.297,2.66c-0.457,0.898-1.053,1.535-1.484,2.436c-0.444,0.933-0.832,1.794-1.344,2.683
			c-0.275,0.482-0.32,0.997-0.371,1.543c-0.074,0.791-0.229,1.437-0.568,2.164c-0.526,1.134-0.62,2.25-0.879,3.486
			c-0.221,1.061-0.616,2.042-0.774,3.098c-0.228,1.496-0.817,2.859-1.063,4.328c-0.265,1.568,0.885,4.616-1.66,4.654
			c-0.902,0.013-1.769-0.251-2.685-0.251c-0.788,0-1.657-0.106-2.44,0c-0.603,0.082-1.088,0.431-1.719,0.486
			c-0.595,0.056-1.302,0.044-1.896-0.005c-0.176-0.015-0.268-0.003-0.434-0.061"/>
		<path fill="none" stroke="#000000" stroke-width="3" stroke-miterlimit="10" d="M241.837,384.679
			c1.006,0.606,1.477,1.615,2.139,2.515c0.629,0.854,1.717,1.33,2.479,2.033c0.479,0.438,1.119,0.883,1.613,1.214
			c0.447,0.3,0.813,0.687,1.316,0.971c1.418,0.801,2.729,2.248,4.196,2.724"/>
		<path fill="none" stroke="#000000" stroke-width="3" stroke-miterlimit="10" d="M243.945,380.042
			c2.049,1.74,4.526,3.069,6.793,4.504c1.035,0.656,2.069,1.406,3.104,2.028c0.399,0.24,0.864,0.461,1.256,0.729
			c0.354,0.245,0.61,0.627,1.072,0.688"/>
		<path fill="none" stroke="#000000" stroke-width="3" stroke-miterlimit="10" d="M243.585,371.792
			c0.108,0.291,0.299,0.324,0.538,0.534c0.705,0.615,1.318,1.246,2.072,1.818c0.989,0.754,1.871,1.729,2.944,2.364
			c1.396,0.824,2.804,1.741,4.168,2.478c0.644,0.346,1.373,0.56,2.023,0.892c0.432,0.22,0.707,0.571,1.094,0.824
			c0.699,0.461,1.666,0.747,2.334,1.087"/>
		<path fill="none" stroke="#000000" stroke-width="3" stroke-miterlimit="10" d="M281.644,345.535
			c-0.76,0.129-1.45,1.407-1.899,1.95c-0.416,0.501-0.946,0.939-1.459,1.31c-0.938,0.678-2.183,1.169-3.25,1.436
			c-1.703,0.422-3.457,0.563-5.188,0.902c-0.897,0.178-1.567,0.494-2.428,0.854c-0.941,0.393-1.986,0.425-2.938,0.771
			c-0.837,0.307-1.437,0.841-2.332,1.085c-0.449,0.123-0.914,0.165-1.343,0.33c-0.662,0.257-1.145,0.792-1.903,0.912
			c-0.504,0.079-0.649,0.076-1.067,0.258c-0.556,0.242-1.08,0.638-1.646,0.849c-0.471,0.175-1.002,0.179-1.469,0.361
			c-0.543,0.214-1.062,0.525-1.638,0.688c-2.206,0.626-4.854,0.397-7.11,0.397c-1.978,0-4.039,0.095-6-0.061"/>
		<path fill="none" stroke="#000000" stroke-width="3" stroke-miterlimit="10" d="M240.994,360.169
			c0.017,1.745,0.42,3.443,0.422,5.203c0.003,3.561-0.579,7.091-0.461,10.656c0.097,2.912,0.039,5.833,0.039,8.747
			c0,4.564,0,9.13,0,13.693"/>
		<path fill="none" stroke="#000000" stroke-width="3" stroke-miterlimit="10" d="M239.791,355.653
			c0.312-1.038,0.515-2.092,0.632-3.175c0.1-0.905,0.146-1.817,0.237-2.724c0.067-0.659,0.343-1.18,0.453-1.811"/>
		<path fill="none" stroke="#000000" stroke-width="3" stroke-miterlimit="10" d="M270.443,344.872
			c-0.938-0.147-2.062-1.15-2.854-1.644c-0.846-0.526-1.854-1.195-2.815-1.466c-1.021-0.285-2.107-0.602-3.146-0.777
			c-1.428-0.243-2.902,0.047-4.342-0.127c-1.352-0.163-2.572,0.206-3.941,0.489c-1.076,0.225-1.901,1.198-2.694,1.939
			c-0.709,0.66-1.548,1.255-2.359,1.777c-1.01,0.65-1.479,1.568-2.766,1.611c-0.479,0.018-0.916,0.004-1.377,0.089
			c-0.49,0.092-0.959,0.317-1.468,0.274"/>
		<path fill="none" stroke="#000000" stroke-width="3" stroke-miterlimit="10" d="M282.847,357.218
			c-0.022-0.507-0.787-1.706-1.26-2.019c-0.391-0.259-0.977-0.275-1.414-0.364c-0.688-0.138-1.469-0.678-2.143-0.688"/>
		<path fill="none" stroke="#000000" stroke-width="3" stroke-miterlimit="10" d="M284.234,375.285
			c-0.537-0.178-1.099-0.254-1.647-0.425c-0.865-0.269-1.771-0.441-2.628-0.737c-0.25-0.087-0.801-0.429-1.112-0.479
			c-0.631-0.104-2.615,0.294-2.32-0.947"/>
		<path fill="none" stroke="#000000" stroke-width="3" stroke-miterlimit="10" d="M275.863,359.025
			c0.004,1.206,0.002,2.332,0.262,3.52c0.316,1.451,0.355,3.344,1.304,4.551"/>
		<path fill="none" stroke="#000000" stroke-width="3" stroke-miterlimit="10" d="M269.238,366.855
			c-1.25,1.191-1.942,2.909-3.146,4.046c-0.317,0.301-0.514,0.753-0.811,1.096c-0.291,0.338-0.73,0.592-1.016,0.938
			c-0.976,1.18-1.769,2.813-3.582,2.833"/>
	</g>
</g>
</svg>
