<?xml version="1.0" encoding="utf-8"?>
<!-- Generator: Adobe Illustrator 16.0.0, SVG Export Plug-In . SVG Version: 6.00 Build 0)  -->
<!DOCTYPE svg PUBLIC "-//W3C//DTD SVG 1.1//EN" "http://www.w3.org/Graphics/SVG/1.1/DTD/svg11.dtd">
<svg version="1.1" id="Layer_1" xmlns="http://www.w3.org/2000/svg" xmlns:xlink="http://www.w3.org/1999/xlink" x="0px" y="0px"
	 width="413.248px" height="317.521px" viewBox="0 0 413.248 317.521" enable-background="new 0 0 413.248 317.521"
	 xml:space="preserve">
<path fill="#010101" d="M395.34,177.057c0-43.93-35.753-79.675-79.684-79.675c-15.576,0-30.814,4.615-43.735,13.1
	c-3.352-14.694-7.805-28.854-13.196-41.525c-14.477-34.036-33.438-52.779-53.387-52.779c-19.966,0-38.927,18.67-53.371,52.569
	c-5.101,11.942-9.359,25.236-12.646,39.081l-19.998-73.344c-0.729-2.664-3.157-4.518-5.91-4.518c-2.769,0-5.198,1.854-5.91,4.518
	L52.335,236.734c-0.502,1.846-0.113,3.821,1.037,5.335c1.166,1.514,2.963,2.404,4.874,2.404h49.031v49.031
	c0,3.392,2.753,6.137,6.137,6.137c3.384,0,6.121-2.745,6.121-6.137v-49.031h49.03c1.911,0,3.708-0.891,4.874-2.404
	c0.939-1.238,1.36-2.777,1.215-4.299c7.594,3.489,15.868,5.732,24.563,6.453v49.281c0,3.392,2.736,6.137,6.121,6.137
	c3.384,0,6.137-2.745,6.137-6.137v-49.281c15.9-1.32,30.393-7.717,41.841-17.562c13.796,17.334,34.15,28.135,56.221,29.827v37.016
	c0,3.392,2.736,6.137,6.12,6.137c3.385,0,6.137-2.745,6.137-6.137v-37C362.874,253.364,395.34,218.931,395.34,177.057z
	 M160.549,232.216h-41.015v-9.715l10.849-10.85c2.396-2.388,2.396-6.266,0-8.662s-6.267-2.396-8.663,0l-2.186,2.178v-40.368
	c0-3.384-2.737-6.128-6.121-6.128c-3.384,0-6.137,2.745-6.137,6.128v28.11l-7.918-7.926c-2.396-2.389-6.283-2.389-8.663,0
	c-2.396,2.396-2.396,6.274,0,8.671l16.581,16.589v9.716v0.008v12.249H66.277l47.136-172.829l20.759,76.145
	c-1.619,11.901-2.478,23.827-2.478,35.3c0,23.301,10.881,44.1,27.818,57.604L160.549,232.216z M211.475,222.501l22.718-22.718
	c2.396-2.396,2.396-6.274,0-8.671c-2.396-2.389-6.282-2.389-8.663,0l-14.055,14.055v-25.568l16.581-16.589
	c2.396-2.396,2.396-6.274,0-8.671c-2.38-2.389-6.267-2.389-8.663,0l-7.918,7.926v-15.853c0-3.384-2.753-6.128-6.137-6.128
	c-3.385,0-6.121,2.744-6.121,6.128v30.644v0.008v15.844l-14.055-14.055c-2.396-2.389-6.283-2.389-8.663,0
	c-2.396,2.396-2.396,6.274,0,8.671l22.718,22.718v9.716v0.008v11.942c-30.976-3.085-55.265-29.293-55.265-61.078
	c0-32.587,7.206-68.956,19.285-97.276c12.226-28.677,27.576-45.12,42.101-45.12c14.508,0,29.858,16.517,42.1,45.323
	c12.08,28.393,19.285,64.689,19.285,97.082c0,31.777-24.271,57.985-55.248,61.07V222.501z M321.793,244.198v-9.439l22.719-22.719
	c2.396-2.396,2.396-6.273,0-8.67c-2.396-2.389-6.267-2.389-8.663,0l-14.056,14.055v-40.368c0-3.384-2.752-6.129-6.137-6.129
	c-3.384,0-6.12,2.745-6.12,6.129v28.11l-14.056-14.055c-2.396-2.389-6.282-2.389-8.662,0c-2.396,2.396-2.396,6.274,0,8.671
	l22.718,22.718v9.715v0.009v11.974c-18.8-1.716-36.061-11.245-47.558-26.353c10.622-12.76,17.002-29.154,17.002-47.015
	c0-15.286-1.538-31.405-4.388-47.233c11.739-9.011,26.216-13.958,41.063-13.958c37.178,0,67.426,30.248,67.426,67.417
	C383.082,212.17,356.105,241.09,321.793,244.198z"/>
</svg>
