<?xml version="1.0" encoding="utf-8"?>
<!-- Generator: Adobe Illustrator 16.0.0, SVG Export Plug-In . SVG Version: 6.00 Build 0)  -->
<!DOCTYPE svg PUBLIC "-//W3C//DTD SVG 1.1//EN" "http://www.w3.org/Graphics/SVG/1.1/DTD/svg11.dtd">
<svg version="1.1" id="Layer_1" xmlns="http://www.w3.org/2000/svg" xmlns:xlink="http://www.w3.org/1999/xlink" x="0px" y="0px"
	 width="170.079px" height="311.812px" viewBox="0 0 170.079 311.812" enable-background="new 0 0 170.079 311.812"
	 xml:space="preserve">
<path fill="#010101" d="M154.12,120.9l-2.677-13.119c-3.368-14.691-7.822-28.849-13.213-41.519
	c-14.466-34.033-33.424-52.786-53.374-52.786c-19.968,0-38.927,18.668-53.375,52.561c-5.091,11.95-9.357,25.246-12.652,39.086
	l-5.146,27.707c-1.609,11.913-2.471,23.833-2.471,35.306c0,23.292,10.874,44.102,27.811,57.605l15.141,9.328
	c7.599,3.49,15.87,5.737,24.554,6.457v49.285c0,3.388,2.75,6.129,6.138,6.129c3.387,0,6.12-2.741,6.12-6.129v-49.285
	c15.927-1.32,30.412-7.71,41.846-17.564l8.665-8.813c10.612-12.764,17.013-29.158,17.013-47.013
	C158.5,152.846,156.964,136.732,154.12,120.9z M90.976,229.212v-9.414l22.72-22.72c2.396-2.386,2.396-6.27,0-8.666
	c-2.396-2.385-6.27-2.385-8.665,0l-14.055,14.057v-25.575l16.6-16.59c2.396-2.386,2.396-6.27,0-8.665
	c-2.396-2.386-6.27-2.386-8.665,0l-7.935,7.926v-15.842c0-3.396-2.733-6.138-6.12-6.138c-3.388,0-6.138,2.742-6.138,6.138v30.635
	v0.01v15.844l-14.037-14.056c-2.395-2.386-6.288-2.386-8.684,0c-2.396,2.396-2.396,6.278,0,8.665l22.72,22.72v9.722l0,0v11.95
	c-30.973-3.088-55.246-29.299-55.246-61.076c0-32.592,7.204-68.964,19.276-97.29c12.221-28.671,27.567-45.112,42.108-45.112
	c14.504,0,29.851,16.525,42.089,45.318c12.091,28.4,19.296,64.688,19.296,97.083C146.241,199.914,121.967,226.125,90.976,229.212z"
	/>
</svg>
