<?xml version="1.0" encoding="utf-8"?>
<!-- Generator: Adobe Illustrator 16.0.0, SVG Export Plug-In . SVG Version: 6.00 Build 0)  -->
<!DOCTYPE svg PUBLIC "-//W3C//DTD SVG 1.1//EN" "http://www.w3.org/Graphics/SVG/1.1/DTD/svg11.dtd">
<svg version="1.1" id="Layer_1" xmlns="http://www.w3.org/2000/svg" xmlns:xlink="http://www.w3.org/1999/xlink" x="0px" y="0px"
	 width="170.079px" height="311.811px" viewBox="0 0 170.079 311.811" enable-background="new 0 0 170.079 311.811"
	 xml:space="preserve">
<path fill="#010101" d="M148.915,236.121c0.037-0.095,0.094-0.188,0.131-0.272c0.057-0.104,0.113-0.207,0.17-0.319
	c0.056-0.104,0.094-0.206,0.149-0.328c0.038-0.075,0.057-0.16,0.094-0.244c0.038-0.141,0.095-0.272,0.132-0.413
	c0.019-0.019,0.019-0.065,0.019-0.104c0.301-1.098,0.319-2.243,0.019-3.379l-36.96-135.509l0,0L91.639,18.468
	c-0.02-0.056-0.038-0.103-0.057-0.159c-0.77-2.543-3.004-4.355-5.613-4.571c-0.188-0.009-0.356-0.019-0.544-0.019
	c-0.188,0-0.356,0.01-0.544,0.019c-2.609,0.216-4.862,2.027-5.613,4.571c-0.019,0.056-0.038,0.103-0.056,0.159L58.188,95.552l0,0
	l-36.96,135.509c-0.526,1.943-0.132,4.008,1.088,5.612c1.22,1.587,3.116,2.525,5.125,2.525h51.546v51.546
	c0,3.548,2.872,6.438,6.438,6.438c3.548,0,6.438-2.891,6.438-6.438v-51.546h20.521h31.029l0,0c2.009,0,3.904-0.938,5.125-2.525
	c0.019-0.037,0.037-0.074,0.074-0.103C148.708,236.411,148.821,236.271,148.915,236.121z M112.385,226.313H91.864v-10.211
	l11.399-11.395c2.515-2.516,2.515-6.598,0-9.113c-2.516-2.516-6.589-2.516-9.109,0l-2.29,2.28v-42.423
	c0-3.557-2.891-6.438-6.438-6.438c-3.566,0-6.438,2.881-6.438,6.438v29.546l-8.334-8.334c-2.515-2.507-6.588-2.507-9.104,0
	c-2.515,2.515-2.515,6.598,0,9.113l17.438,17.438v10.211v0.02v12.867H35.87L85.425,44.645l48.547,178.018l0.995,3.65H112.385z"/>
</svg>
