<?xml version="1.0" encoding="utf-8"?>
<!-- Generator: Adobe Illustrator 16.0.0, SVG Export Plug-In . SVG Version: 6.00 Build 0)  -->
<!DOCTYPE svg PUBLIC "-//W3C//DTD SVG 1.1//EN" "http://www.w3.org/Graphics/SVG/1.1/DTD/svg11.dtd">
<svg version="1.1" id="Layer_1" xmlns="http://www.w3.org/2000/svg" xmlns:xlink="http://www.w3.org/1999/xlink" x="0px" y="0px"
	 width="340.157px" height="340.158px" viewBox="0 0 340.157 340.158" enable-background="new 0 0 340.157 340.158"
	 xml:space="preserve">
<g>
	<path fill-rule="evenodd" clip-rule="evenodd" d="M175.918,268.179c0,6.006,0,11.477,0,16.966c0,1.399,0.054,2.825-0.018,4.224
		c-0.143,3.77-2.05,6.006-5.062,6.051c-3.012,0.026-5.079-2.219-5.15-5.935c-0.107-5.516-0.036-11.032-0.036-16.548
		c0-1.381,0-2.762,0-5.195c-6.843,0-13.401,0.526-19.817-0.143c-6.594-0.686-11.887-4.5-16.503-10.229
		c-9.178,12.706-22.705,11.004-36.321,10.791c0,4.82,0,9.392,0,13.945c0,2.566,0.089,5.133-0.018,7.689
		c-0.143,3.431-2.192,5.614-5.079,5.623c-2.94,0.009-4.883-2.121-4.937-5.632c-0.054-5.89,0-11.798-0.018-17.706
		c0-1.123-0.107-2.263-0.179-3.813c-5.025,0-9.855,0.098-14.685-0.018c-15.559-0.428-27.143-12.359-26.68-27.401
		c0.339-10.551,7.058-19.979,17.252-23.756c1.996-0.74,2.655-1.542,2.922-3.681c1.729-13.606,11.673-23.187,24.826-24.175
		c12.208-0.936,23.988,7.396,26.857,20.165c1.087,4.919,2.78,7.548,7.396,9.41c3.297,1.327,5.881,4.384,8.091,6.121
		c4.865-2.833,9.677-5.524,14.347-8.465c0.819-0.508,1.336-1.996,1.443-3.083c1.265-13.634,12.778-24.256,26.322-24.202
		c13.474,0.063,24.986,10.604,26.02,23.997c0.161,2.059,0.803,2.878,2.728,3.858c4.491,2.272,8.644,5.222,12.511,7.637
		c4.277-2.504,9.106-5.231,13.776-8.189c0.837-0.525,1.337-2.022,1.479-3.137c1.55-12.252,9.409-21.056,21.064-23.427
		c15.381-3.137,29.281,7.049,31.491,23.258c0.303,2.236,0.962,3.163,3.101,3.965c11.478,4.295,18.57,16.075,16.967,27.695
		c-1.765,12.707-11.299,22.117-24.023,23.142c-5.596,0.445-11.246,0.08-17.377,0.08c0,6.193,0,11.923,0,17.652
		c0,1.417-0.018,2.825,0,4.241c0.036,3.217-1.568,5.115-4.74,5.418c-2.887,0.295-5.168-2.005-5.258-5.373
		c-0.143-5.632-0.053-11.281-0.07-16.931c0-1.399,0-2.789,0-4.767c-13.082-0.232-26.857,2.022-36.268-11.006
		C202.936,270.014,189.534,268.348,175.918,268.179z M258.61,257.512c6.915,0,13.313,0.784,19.426-0.204
		c7.396-1.213,12.493-9,12.065-16.254c-0.481-8.029-6.397-14.293-14.596-15.434c-5.062-0.704-6.612-2.424-5.881-6.924
		c1.122-6.933-1.283-12.467-6.88-16.404c-5.382-3.787-11.299-4.037-17.055-0.705c-6.006,3.494-8.572,8.867-8.073,15.826
		c0.499,6.701,0.071,7.12-6.809,8.367c-7.681,1.391-13.276,7.814-13.58,15.55c-0.285,7.235,5.079,15.023,12.333,16.084
		c6.095,0.892,12.439,0.179,19.016,0.179c0-4.465-0.071-8.805,0.018-13.145c0.071-3.635,2.246-6.023,5.24-5.783
		c3.457,0.277,4.829,2.442,4.794,5.766C258.558,248.771,258.61,253.111,258.61,257.512z M93.029,257.54
		c6.683,0,13.045,0.767,19.14-0.196c7.343-1.149,12.529-8.893,12.172-16.146c-0.392-7.904-6.131-14.195-14.079-15.469
		c-6.077-0.963-6.647-1.801-6.416-8.021c0.089-2.396,0.054-4.945-0.677-7.173c-2.638-8.109-10.872-12.627-18.82-10.676
		c-8.607,2.13-13.758,9.695-12.386,18.464c0.445,2.958,0.089,5.444-2.834,6.799c-1.123,0.508-2.513,0.437-3.76,0.642
		c-7.77,1.283-13.366,7.432-13.883,15.237c-0.463,7.254,4.563,15.033,11.977,16.271c6.184,1.034,12.671,0.214,19.497,0.214
		c0-4.286-0.036-8.607,0.018-12.921c0.036-3.805,1.907-5.979,4.99-5.935c2.976,0.045,4.972,2.361,5.043,6.033
		C93.083,248.878,93.029,253.102,93.029,257.54z M175.954,257.949c5.363,0,10.211,0.09,15.059-0.009
		c8.608-0.187,15.505-6.531,15.986-14.596c0.553-9.196-5.097-16.333-14.025-17.67c-5.846-0.892-6.63-2.022-6.096-8.109
		c0.606-6.728-1.889-12.074-7.646-15.665c-5.489-3.431-11.209-3.476-16.734-0.125c-5.792,3.493-8.358,8.849-7.824,15.585
		c0.517,6.567,0.053,7.235-6.612,8.403c-7.521,1.31-13.152,7.44-13.491,14.658c-0.392,8.27,4.277,15.71,11.994,16.939
		c6.06,0.972,12.422,0.188,19.087,0.188c0-3.102,0-6.14,0-9.178c0-7.209,1.391-9.794,5.204-9.731
		c3.742,0.054,5.062,2.584,5.098,9.882C175.972,251.453,175.954,254.384,175.954,257.949z"/>
	<path fill-rule="evenodd" clip-rule="evenodd" d="M122.078,67.773c5.293-10.167,12.672-18.161,22.545-23.756
		c1.104-0.624,2.192-1.363,3.386-1.773c2.727-0.918,5.133-0.437,6.594,2.281c1.497,2.789,0.446,5.008-1.96,6.621
		c-2.121,1.425-4.473,2.513-6.576,3.965c-7.129,4.945-12.368,11.469-15.844,19.417c-2.228,5.035-3.813,5.712-8.982,3.938
		c-13.972-4.794-26.804,5.249-25.146,19.871c0.463,4.055-0.731,6.407-4.419,8.252c-7.949,3.947-11.674,12.511-9.624,21.012
		c1.96,8.171,9.231,14.079,17.964,14.105c44.002,0.081,88.021,0.17,132.042-0.009c14.632-0.053,26.216-10.746,27.837-24.781
		c1.622-13.972-7.039-26.929-21.047-30.288c-4.438-1.06-9.41-0.534-14.044,0.027c-4.723,0.57-6.576-0.188-7.859-4.848
		c-3.636-13.126-11.174-23.177-23.257-29.7c-4.082-2.183-5.204-4.643-3.636-7.574c1.622-2.967,4.384-3.538,8.305-1.426
		c12.333,6.639,21.137,16.485,26.198,29.558c0.838,2.112,1.551,3.243,4.295,3.039c21.314-1.595,40.135,14.346,41.275,34.744
		c1.247,22.615-15.167,41.311-37.533,41.48c-44.27,0.356-88.556,0.187-132.825,0.036c-12.564-0.045-23.293-8.412-27.071-20.308
		c-3.742-11.736,0.356-24.113,10.408-31.865c1.087-0.837,2.281-2.209,2.424-3.458C88.003,74.973,100.639,64.904,122.078,67.773z"/>
	<path fill-rule="evenodd" clip-rule="evenodd" d="M184.847,106.348c0,1.792,0.054,3.574,0,5.383
		c-0.268,9.41-6.861,15.941-16.058,15.923c-8.75-0.036-15.487-6.861-15.701-15.995c-0.089-3.716-0.107-7.432,0-11.147
		c0.267-8.965,7.307-15.951,15.951-15.915c8.661,0.036,15.54,6.977,15.79,15.986C184.882,102.508,184.847,104.433,184.847,106.348
		L184.847,106.348z M174.688,106.429c0-1.916,0.071-3.832-0.018-5.748c-0.161-3.413-2.264-5.641-5.383-5.783
		c-3.012-0.151-5.774,1.925-6.042,5.195c-0.303,4.054-0.285,8.162,0,12.226c0.25,3.261,3.012,5.382,6.006,5.239
		c3.083-0.151,5.222-2.388,5.399-5.783C174.76,110.002,174.671,108.211,174.688,106.429z"/>
	<path fill-rule="evenodd" clip-rule="evenodd" d="M210.563,123.76c1.604,0,3.119-0.134,4.615,0.036
		c2.852,0.33,4.42,2.192,4.474,4.901c0.036,2.754-1.568,4.865-4.384,4.955c-6.523,0.223-13.081,0.303-19.604-0.089
		c-1.516-0.098-3.743-2.121-4.135-3.662c-0.393-1.515,0.659-3.956,1.871-5.249c3.332-3.52,7.164-6.558,10.604-9.989
		c1.229-1.212,2.264-2.896,2.691-4.545c0.231-0.944-0.892-2.263-1.391-3.404c-1.283,0.561-2.619,1.025-3.796,1.755
		c-0.392,0.25-0.374,1.186-0.499,1.809c-0.642,3.03-2.655,4.428-5.578,4.01c-3.154-0.455-4.669-2.771-4.33-5.819
		c0.605-5.347,3.261-9.401,8.554-11.245c5.15-1.8,10.017-1.034,13.884,2.842c3.742,3.769,4.687,8.599,2.69,13.518
		C214.876,116.97,212.685,120.018,210.563,123.76z"/>
	<path fill-rule="evenodd" clip-rule="evenodd" d="M138.92,127.654c-0.891,0-1.8,0.018-2.691,0
		c-8.697-0.133-14.151-5.373-14.436-14.088c-0.16-4.856-0.143-9.74,0-14.614c0.25-8.572,5.828-14.115,14.347-14.373
		c2.441-0.071,4.883-0.089,7.307,0.026c3.261,0.134,5.364,1.845,5.631,5.15c0.232,2.789-2.228,4.848-5.649,4.99
		c-2.299,0.098-4.616,0.044-6.915,0.044c-2.958-0.009-4.544,1.336-4.527,4.42c0.054,4.75,0.036,9.49,0.054,14.24
		c0.018,2.86,1.515,4.179,4.331,4.152c2.441-0.036,4.883-0.107,7.307,0.054c3.314,0.205,5.774,2.575,5.382,5.311
		c-0.428,3.057-2.281,4.758-5.524,4.687C142.003,127.619,140.453,127.654,138.92,127.654z"/>
	<path fill-rule="evenodd" clip-rule="evenodd" d="M134.536,180.843c3.047,1.756,5.827,2.594,7.218,4.447
		c0.802,1.086-0.089,4.241-1.194,5.747c-2.032,2.753-4.705,5.044-7.235,7.396c-2.798,2.62-5.187,2.558-8.056-0.106
		c-1.979-1.836-3.85-3.761-5.721-5.694c-1.925-1.996-4.366-3.832-2.923-7.209c1.158-2.664,2.798-3.351,7.734-3.047
		c0-5.106-0.035-10.194,0.018-15.291c0.036-3.761,1.925-5.998,4.937-6.006c3.012-0.018,5.115,2.246,5.186,5.917
		C134.607,172.102,134.536,177.208,134.536,180.843z"/>
	<path fill-rule="evenodd" clip-rule="evenodd" d="M217.211,182.367c1.693,0,3.137-0.258,4.438,0.054
		c3.439,0.829,4.865,5.106,2.46,7.931c-2.639,3.102-5.614,5.943-8.645,8.688c-2.245,2.022-4.758,1.692-6.914-0.321
		c-2.246-2.085-4.295-4.384-6.541-6.478c-2.121-1.961-3.671-4.135-2.424-7.058c1.373-3.182,4.206-3.297,7.468-2.62
		c0-5.409-0.071-10.64,0.018-15.861c0.036-2.673,1.247-5.07,3.992-5.284c1.729-0.134,3.831,0.927,5.257,2.085
		c0.82,0.668,0.838,2.575,0.855,3.93C217.265,172.396,217.211,177.377,217.211,182.367z"/>
	<path fill-rule="evenodd" clip-rule="evenodd" d="M177.344,42.003c-0.321,2.673-1.8,4.5-4.865,4.651
		c-2.834,0.143-5.382-2.21-5.187-4.964c0.196-2.94,1.89-4.731,4.865-4.954C174.938,36.523,177.361,38.956,177.344,42.003z"/>
</g>
</svg>
